# MagicaVoxel @ Ephtracy

# group
o 

# material
mtllib Dirt.mtl
usemtl palette

# normals
vn -1 0 0
vn 1 0 0
vn 0 0 1
vn 0 0 -1
vn 0 -1 0
vn 0 1 0

# texcoords
vt 0.939453 0.5
vt 0.943359 0.5
vt 0.947266 0.5
vt 0.951172 0.5
vt 0.955078 0.5
vt 0.958984 0.5
vt 0.962891 0.5
vt 0.970703 0.5

# verts
v -0.5 0 0.5
v -0.5 0 0.4
v -0.5 0 0.3
v -0.5 0 -0.1
v -0.5 0 -0.3
v -0.5 0 -0.4
v -0.5 0 -0.5
v -0.5 0.1 0.1
v -0.5 0.1 -0.1
v -0.5 0.1 -0.3
v -0.5 0.2 0
v -0.5 0.2 -0.1
v -0.5 0.2 -0.3
v -0.5 0.2 -0.4
v -0.5 0.2 -0.5
v -0.5 0.3 0.5
v -0.5 0.3 0.4
v -0.5 0.3 0.3
v -0.5 0.3 0.2
v -0.5 0.3 0.1
v -0.5 0.3 0
v -0.5 0.3 -0.1
v -0.5 0.3 -0.3
v -0.5 0.3 -0.4
v -0.5 0.3 -0.5
v -0.5 0.4 0.4
v -0.5 0.4 0.2
v -0.5 0.4 0.1
v -0.5 0.4 -0.1
v -0.5 0.4 -0.2
v -0.5 0.4 -0.3
v -0.5 0.4 -0.4
v -0.5 0.4 -0.5
v -0.5 0.5 0.4
v -0.5 0.5 0.2
v -0.5 0.5 0
v -0.5 0.5 -0.1
v -0.5 0.5 -0.3
v -0.5 0.5 -0.4
v -0.5 0.6 0.5
v -0.5 0.6 0.4
v -0.5 0.6 0.3
v -0.5 0.6 0.1
v -0.5 0.6 0
v -0.5 0.6 -0.3
v -0.5 0.6 -0.4
v -0.5 0.6 -0.5
v -0.5 0.7 0.3
v -0.5 0.7 0
v -0.5 0.7 -0.1
v -0.5 0.7 -0.2
v -0.5 0.7 -0.3
v -0.5 0.7 -0.4
v -0.5 0.8 0.5
v -0.5 0.8 0.2
v -0.5 0.8 -0.4
v -0.5 0.8 -0.5
v -0.5 0.9 0.1
v -0.5 0.9 0
v -0.5 0.9 -0.1
v -0.5 0.9 -0.2
v -0.5 0.9 -0.3
v -0.5 0.9 -0.4
v -0.5 0.9 -0.5
v -0.5 1 0.5
v -0.5 1 0.2
v -0.5 1 0.1
v -0.5 1 0
v -0.5 1 -0.4
v -0.5 1 -0.5
v 0.5 0 0.5
v 0.5 0 -0.3
v 0.5 0 -0.4
v 0.5 0 -0.5
v 0.5 0.4 0.5
v 0.5 0.4 0.4
v 0.5 0.4 -0.4
v 0.5 0.4 -0.5
v 0.5 0.5 0.2
v 0.5 0.5 0
v 0.5 0.6 0.3
v 0.5 0.6 0.2
v 0.5 0.6 0
v 0.5 0.6 -0.1
v 0.5 0.7 0.3
v 0.5 0.7 0.2
v 0.5 0.7 -0.4
v 0.5 0.7 -0.5
v 0.5 0.8 -0.1
v 0.5 0.8 -0.2
v 0.5 0.8 -0.4
v 0.5 0.8 -0.5
v 0.5 0.9 0.4
v 0.5 0.9 0.3
v 0.5 0.9 0.2
v 0.5 0.9 -0.2
v 0.5 0.9 -0.3
v 0.5 0.9 -0.4
v 0.5 0.9 -0.5
v 0.5 1 0.5
v 0.5 1 0.3
v 0.5 1 -0.5
v -0.5 0 0.5
v -0.5 0.3 0.5
v -0.5 0.6 0.5
v -0.5 0.8 0.5
v -0.5 1 0.5
v -0.4 0.3 0.5
v -0.4 0.6 0.5
v -0.4 0.7 0.5
v -0.4 0.8 0.5
v -0.4 1 0.5
v -0.3 0.6 0.5
v -0.3 0.7 0.5
v -0.3 0.8 0.5
v -0.2 0.6 0.5
v -0.2 0.7 0.5
v 0 0.9 0.5
v 0 1 0.5
v 0.1 0.9 0.5
v 0.1 1 0.5
v 0.3 0.9 0.5
v 0.3 1 0.5
v 0.4 0.4 0.5
v 0.4 0.9 0.5
v 0.5 0 0.5
v 0.5 0.4 0.5
v 0.5 1 0.5
v -0.5 0 -0.5
v -0.5 0.2 -0.5
v -0.5 0.3 -0.5
v -0.5 0.4 -0.5
v -0.5 0.6 -0.5
v -0.5 0.8 -0.5
v -0.5 0.9 -0.5
v -0.5 1 -0.5
v -0.4 0.1 -0.5
v -0.4 0.2 -0.5
v -0.4 0.3 -0.5
v -0.4 0.4 -0.5
v -0.4 0.5 -0.5
v -0.4 0.6 -0.5
v -0.4 0.7 -0.5
v -0.4 0.8 -0.5
v -0.4 0.9 -0.5
v -0.4 1 -0.5
v -0.3 0 -0.5
v -0.3 0.1 -0.5
v -0.3 0.2 -0.5
v -0.3 0.3 -0.5
v -0.3 0.5 -0.5
v -0.3 0.6 -0.5
v -0.3 0.7 -0.5
v -0.3 0.8 -0.5
v -0.3 0.9 -0.5
v -0.2 0 -0.5
v -0.2 0.1 -0.5
v -0.2 0.2 -0.5
v -0.2 0.3 -0.5
v -0.2 0.4 -0.5
v -0.2 0.5 -0.5
v -0.2 0.6 -0.5
v -0.2 0.7 -0.5
v -0.2 0.8 -0.5
v -0.1 0.3 -0.5
v -0.1 0.4 -0.5
v -0.1 0.5 -0.5
v -0.1 0.6 -0.5
v -0.1 0.7 -0.5
v -0.1 0.9 -0.5
v -0.1 1 -0.5
v 0 0 -0.5
v 0 0.1 -0.5
v 0 0.2 -0.5
v 0 0.3 -0.5
v 0 0.4 -0.5
v 0 0.6 -0.5
v 0 0.7 -0.5
v 0 0.9 -0.5
v 0 1 -0.5
v 0.1 0.1 -0.5
v 0.1 0.2 -0.5
v 0.1 0.3 -0.5
v 0.1 0.4 -0.5
v 0.1 0.5 -0.5
v 0.1 0.9 -0.5
v 0.1 1 -0.5
v 0.2 0.1 -0.5
v 0.2 0.2 -0.5
v 0.2 0.3 -0.5
v 0.2 0.4 -0.5
v 0.2 0.5 -0.5
v 0.2 0.6 -0.5
v 0.2 0.7 -0.5
v 0.2 0.8 -0.5
v 0.2 0.9 -0.5
v 0.3 0.1 -0.5
v 0.3 0.2 -0.5
v 0.3 0.3 -0.5
v 0.3 0.4 -0.5
v 0.3 0.6 -0.5
v 0.3 0.7 -0.5
v 0.4 0 -0.5
v 0.4 0.2 -0.5
v 0.4 0.4 -0.5
v 0.4 0.6 -0.5
v 0.4 0.7 -0.5
v 0.4 0.8 -0.5
v 0.4 0.9 -0.5
v 0.4 1 -0.5
v 0.5 0 -0.5
v 0.5 0.4 -0.5
v 0.5 0.7 -0.5
v 0.5 0.8 -0.5
v 0.5 0.9 -0.5
v 0.5 1 -0.5
v -0.5 0 0.5
v 0.5 0 0.5
v -0.5 0 0.4
v -0.4 0 0.4
v 0.4 0 0.4
v -0.5 0 0.3
v -0.4 0 0.3
v -0.5 0 -0.1
v -0.4 0 -0.1
v -0.5 0 -0.3
v -0.4 0 -0.3
v 0.4 0 -0.3
v 0.5 0 -0.3
v -0.5 0 -0.4
v -0.4 0 -0.4
v -0.3 0 -0.4
v -0.2 0 -0.4
v 0 0 -0.4
v 0.4 0 -0.4
v 0.5 0 -0.4
v -0.5 0 -0.5
v -0.3 0 -0.5
v -0.2 0 -0.5
v 0 0 -0.5
v 0.4 0 -0.5
v 0.5 0 -0.5
v -0.5 1 0.5
v -0.4 1 0.5
v 0 1 0.5
v 0.1 1 0.5
v 0.3 1 0.5
v 0.5 1 0.5
v -0.3 1 0.4
v 0 1 0.4
v 0.1 1 0.4
v 0.2 1 0.4
v 0.3 1 0.4
v 0.4 1 0.4
v -0.4 1 0.3
v -0.3 1 0.3
v -0.1 1 0.3
v 0.2 1 0.3
v 0.3 1 0.3
v 0.4 1 0.3
v 0.5 1 0.3
v -0.5 1 0.2
v -0.3 1 0.2
v 0.2 1 0.2
v 0.3 1 0.2
v -0.5 1 0.1
v -0.4 1 0.1
v -0.3 1 0.1
v -0.2 1 0.1
v 0.3 1 0.1
v 0.4 1 0.1
v -0.5 1 0
v -0.4 1 0
v -0.3 1 0
v 0 1 0
v 0.2 1 0
v 0.3 1 0
v 0.4 1 0
v -0.3 1 -0.1
v -0.2 1 -0.1
v -0.1 1 -0.1
v 0 1 -0.1
v 0.1 1 -0.1
v 0.2 1 -0.1
v 0.3 1 -0.1
v -0.4 1 -0.2
v -0.3 1 -0.2
v -0.2 1 -0.2
v -0.1 1 -0.2
v 0 1 -0.2
v 0.1 1 -0.2
v 0.2 1 -0.2
v 0.4 1 -0.2
v -0.4 1 -0.3
v -0.3 1 -0.3
v -0.1 1 -0.3
v 0 1 -0.3
v 0.1 1 -0.3
v 0.2 1 -0.3
v 0.3 1 -0.3
v 0.4 1 -0.3
v -0.5 1 -0.4
v -0.4 1 -0.4
v -0.3 1 -0.4
v -0.2 1 -0.4
v -0.1 1 -0.4
v 0 1 -0.4
v 0.1 1 -0.4
v 0.2 1 -0.4
v 0.3 1 -0.4
v 0.4 1 -0.4
v -0.5 1 -0.5
v -0.4 1 -0.5
v -0.1 1 -0.5
v 0 1 -0.5
v 0.1 1 -0.5
v 0.4 1 -0.5
v 0.5 1 -0.5

# faces
f 8/2/1 4/2/1 3/2/1
f 9/4/1 5/4/1 4/4/1
f 9/2/1 4/2/1 8/2/1
f 10/2/1 6/2/1 5/2/1
f 10/4/1 5/4/1 9/4/1
f 11/4/1 9/4/1 8/4/1
f 12/2/1 10/2/1 9/2/1
f 12/4/1 9/4/1 11/4/1
f 13/2/1 6/2/1 10/2/1
f 13/2/1 10/2/1 12/2/1
f 14/4/1 7/4/1 6/4/1
f 14/2/1 6/2/1 13/2/1
f 15/4/1 7/4/1 14/4/1
f 16/2/1 2/2/1 1/2/1
f 17/4/1 3/4/1 2/4/1
f 17/2/1 2/2/1 16/2/1
f 18/2/1 8/2/1 3/2/1
f 18/4/1 3/4/1 17/4/1
f 19/2/1 8/2/1 18/2/1
f 20/4/1 11/4/1 8/4/1
f 20/2/1 8/2/1 19/2/1
f 21/2/1 13/2/1 12/2/1
f 21/4/1 11/4/1 20/4/1
f 21/2/1 12/2/1 11/2/1
f 22/2/1 13/2/1 21/2/1
f 23/1/1 14/1/1 13/1/1
f 23/2/1 13/2/1 22/2/1
f 24/3/1 15/3/1 14/3/1
f 24/1/1 14/1/1 23/1/1
f 25/3/1 15/3/1 24/3/1
f 26/4/1 17/4/1 16/4/1
f 26/2/1 18/2/1 17/2/1
f 26/2/1 19/2/1 18/2/1
f 27/4/1 20/4/1 19/4/1
f 27/2/1 19/2/1 26/2/1
f 28/2/1 22/2/1 21/2/1
f 28/4/1 20/4/1 27/4/1
f 28/2/1 21/2/1 20/2/1
f 29/3/1 24/3/1 23/3/1
f 29/2/1 22/2/1 28/2/1
f 29/3/1 23/3/1 22/3/1
f 30/3/1 24/3/1 29/3/1
f 31/3/1 24/3/1 30/3/1
f 32/4/1 25/4/1 24/4/1
f 32/3/1 24/3/1 31/3/1
f 33/4/1 25/4/1 32/4/1
f 34/4/1 26/4/1 16/4/1
f 34/5/1 27/5/1 26/5/1
f 35/2/1 28/2/1 27/2/1
f 35/5/1 27/5/1 34/5/1
f 36/3/1 29/3/1 28/3/1
f 36/3/1 30/3/1 29/3/1
f 37/3/1 30/3/1 36/3/1
f 38/2/1 31/2/1 30/2/1
f 38/1/1 32/1/1 31/1/1
f 39/3/1 33/3/1 32/3/1
f 39/1/1 32/1/1 38/1/1
f 40/4/1 34/4/1 16/4/1
f 41/2/1 35/2/1 34/2/1
f 41/4/1 34/4/1 40/4/1
f 42/2/1 35/2/1 41/2/1
f 43/2/1 28/2/1 35/2/1
f 43/2/1 35/2/1 42/2/1
f 43/3/1 36/3/1 28/3/1
f 44/2/1 37/2/1 36/2/1
f 44/3/1 36/3/1 43/3/1
f 45/2/1 38/2/1 30/2/1
f 45/2/1 39/2/1 38/2/1
f 46/3/1 33/3/1 39/3/1
f 46/2/1 39/2/1 45/2/1
f 47/3/1 33/3/1 46/3/1
f 48/2/1 42/2/1 41/2/1
f 48/5/1 43/5/1 42/5/1
f 48/2/1 41/2/1 40/2/1
f 48/5/1 44/5/1 43/5/1
f 49/2/1 37/2/1 44/2/1
f 49/5/1 44/5/1 48/5/1
f 50/3/1 30/3/1 37/3/1
f 50/2/1 37/2/1 49/2/1
f 51/2/1 45/2/1 30/2/1
f 51/3/1 30/3/1 50/3/1
f 52/3/1 46/3/1 45/3/1
f 52/2/1 45/2/1 51/2/1
f 53/2/1 47/2/1 46/2/1
f 53/3/1 46/3/1 52/3/1
f 54/2/1 49/2/1 48/2/1
f 54/2/1 48/2/1 40/2/1
f 55/2/1 49/2/1 54/2/1
f 56/2/1 47/2/1 53/2/1
f 56/2/1 53/2/1 52/2/1
f 57/2/1 47/2/1 56/2/1
f 58/2/1 49/2/1 55/2/1
f 59/3/1 50/3/1 49/3/1
f 59/2/1 49/2/1 58/2/1
f 60/2/1 51/2/1 50/2/1
f 60/3/1 50/3/1 59/3/1
f 61/3/1 52/3/1 51/3/1
f 61/2/1 51/2/1 60/2/1
f 62/2/1 56/2/1 52/2/1
f 62/3/1 52/3/1 61/3/1
f 63/7/1 57/7/1 56/7/1
f 63/2/1 56/2/1 62/2/1
f 64/7/1 57/7/1 63/7/1
f 65/3/1 55/3/1 54/3/1
f 66/2/1 58/2/1 55/2/1
f 66/3/1 55/3/1 65/3/1
f 67/3/1 59/3/1 58/3/1
f 67/2/1 58/2/1 66/2/1
f 68/4/1 60/4/1 59/4/1
f 68/3/1 59/3/1 67/3/1
f 68/4/1 61/4/1 60/4/1
f 68/4/1 62/4/1 61/4/1
f 68/4/1 63/4/1 62/4/1
f 69/2/1 64/2/1 63/2/1
f 69/4/1 63/4/1 68/4/1
f 70/2/1 64/2/1 69/2/1
f 71/2/2 72/2/2 75/2/2
f 75/2/2 72/2/2 76/2/2
f 73/4/2 74/4/2 77/4/2
f 72/1/2 73/1/2 77/1/2
f 77/4/2 74/4/2 78/4/2
f 76/2/2 72/2/2 79/2/2
f 79/2/2 72/2/2 80/2/2
f 76/2/2 79/2/2 81/2/2
f 79/3/2 80/3/2 82/3/2
f 81/2/2 79/2/2 82/2/2
f 80/2/2 72/2/2 83/2/2
f 82/3/2 80/3/2 83/3/2
f 83/2/2 72/2/2 84/2/2
f 81/3/2 82/3/2 85/3/2
f 76/2/2 81/2/2 85/2/2
f 83/3/2 84/3/2 85/3/2
f 82/3/2 83/3/2 85/3/2
f 85/3/2 84/3/2 86/3/2
f 72/1/2 77/1/2 87/1/2
f 77/2/2 78/2/2 87/2/2
f 87/2/2 78/2/2 88/2/2
f 86/3/2 84/3/2 89/3/2
f 84/2/2 72/2/2 89/2/2
f 89/2/2 72/2/2 90/2/2
f 87/1/2 88/1/2 91/1/2
f 72/1/2 87/1/2 91/1/2
f 91/1/2 88/1/2 92/1/2
f 75/1/2 76/1/2 93/1/2
f 85/2/2 86/2/2 93/2/2
f 76/2/2 85/2/2 93/2/2
f 93/2/2 86/2/2 94/2/2
f 89/3/2 90/3/2 95/3/2
f 94/2/2 86/2/2 95/2/2
f 86/3/2 89/3/2 95/3/2
f 90/2/2 72/2/2 96/2/2
f 95/3/2 90/3/2 96/3/2
f 72/1/2 91/1/2 97/1/2
f 96/2/2 72/2/2 97/2/2
f 91/2/2 92/2/2 98/2/2
f 97/1/2 91/1/2 98/1/2
f 98/2/2 92/2/2 99/2/2
f 93/1/2 94/1/2 100/1/2
f 75/1/2 93/1/2 100/1/2
f 96/4/2 97/4/2 101/4/2
f 100/1/2 94/1/2 101/1/2
f 94/4/2 95/4/2 101/4/2
f 97/4/2 98/4/2 101/4/2
f 98/4/2 99/4/2 101/4/2
f 95/4/2 96/4/2 101/4/2
f 101/4/2 99/4/2 102/4/2
f 108/2/3 104/2/3 103/2/3
f 108/4/3 105/4/3 104/4/3
f 109/2/3 106/2/3 105/2/3
f 109/4/3 105/4/3 108/4/3
f 110/2/3 106/2/3 109/2/3
f 111/3/3 107/3/3 106/3/3
f 111/2/3 106/2/3 110/2/3
f 112/3/3 107/3/3 111/3/3
f 113/2/3 110/2/3 109/2/3
f 113/2/3 109/2/3 108/2/3
f 114/3/3 111/3/3 110/3/3
f 114/2/3 110/2/3 113/2/3
f 115/2/3 112/2/3 111/2/3
f 115/3/3 111/3/3 114/3/3
f 116/3/3 114/3/3 113/3/3
f 116/2/3 113/2/3 108/2/3
f 117/2/3 115/2/3 114/2/3
f 117/3/3 114/3/3 116/3/3
f 118/2/3 112/2/3 115/2/3
f 118/2/3 115/2/3 117/2/3
f 118/2/3 117/2/3 116/2/3
f 119/2/3 112/2/3 118/2/3
f 120/2/3 118/2/3 116/2/3
f 120/1/3 119/1/3 118/1/3
f 121/1/3 119/1/3 120/1/3
f 122/2/3 120/2/3 116/2/3
f 122/2/3 121/2/3 120/2/3
f 123/2/3 121/2/3 122/2/3
f 124/2/3 116/2/3 108/2/3
f 124/2/3 122/2/3 116/2/3
f 125/1/3 123/1/3 122/1/3
f 125/2/3 122/2/3 124/2/3
f 126/2/3 108/2/3 103/2/3
f 126/2/3 124/2/3 108/2/3
f 127/1/3 125/1/3 124/1/3
f 127/2/3 124/2/3 126/2/3
f 128/1/3 123/1/3 125/1/3
f 128/1/3 125/1/3 127/1/3
f 129/4/4 130/4/4 137/4/4
f 130/3/4 131/3/4 138/3/4
f 137/4/4 130/4/4 138/4/4
f 131/4/4 132/4/4 139/4/4
f 138/3/4 131/3/4 139/3/4
f 132/3/4 133/3/4 140/3/4
f 139/4/4 132/4/4 140/4/4
f 140/3/4 133/3/4 141/3/4
f 133/2/4 134/2/4 142/2/4
f 141/3/4 133/3/4 142/3/4
f 142/2/4 134/2/4 143/2/4
f 134/7/4 135/7/4 144/7/4
f 143/2/4 134/2/4 144/2/4
f 135/2/4 136/2/4 145/2/4
f 144/7/4 135/7/4 145/7/4
f 145/2/4 136/2/4 146/2/4
f 129/4/4 137/4/4 147/4/4
f 137/3/4 138/3/4 148/3/4
f 147/4/4 137/4/4 148/4/4
f 138/3/4 139/3/4 148/3/4
f 140/3/4 141/3/4 148/3/4
f 139/3/4 140/3/4 148/3/4
f 148/3/4 141/3/4 149/3/4
f 149/3/4 141/3/4 150/3/4
f 142/1/4 143/1/4 151/1/4
f 150/3/4 141/3/4 151/3/4
f 141/1/4 142/1/4 151/1/4
f 151/1/4 143/1/4 152/1/4
f 143/2/4 144/2/4 153/2/4
f 152/1/4 143/1/4 153/1/4
f 145/4/4 146/4/4 154/4/4
f 153/2/4 144/2/4 154/2/4
f 144/4/4 145/4/4 154/4/4
f 154/4/4 146/4/4 155/4/4
f 148/2/4 149/2/4 156/2/4
f 147/2/4 148/2/4 156/2/4
f 156/2/4 149/2/4 157/2/4
f 149/6/4 150/6/4 158/6/4
f 157/2/4 149/2/4 158/2/4
f 150/3/4 151/3/4 159/3/4
f 158/6/4 150/6/4 159/6/4
f 159/3/4 151/3/4 160/3/4
f 151/2/4 152/2/4 161/2/4
f 160/3/4 151/3/4 161/3/4
f 152/1/4 153/1/4 162/1/4
f 161/2/4 152/2/4 162/2/4
f 153/3/4 154/3/4 163/3/4
f 162/1/4 153/1/4 163/1/4
f 154/2/4 155/2/4 164/2/4
f 163/3/4 154/3/4 164/3/4
f 159/1/4 160/1/4 165/1/4
f 157/2/4 158/2/4 165/2/4
f 158/2/4 159/2/4 165/2/4
f 160/3/4 161/3/4 166/3/4
f 165/1/4 160/1/4 166/1/4
f 161/6/4 162/6/4 167/6/4
f 166/3/4 161/3/4 167/3/4
f 162/3/4 163/3/4 168/3/4
f 167/6/4 162/6/4 168/6/4
f 163/2/4 164/2/4 169/2/4
f 168/3/4 163/3/4 169/3/4
f 164/2/4 155/2/4 170/2/4
f 169/2/4 164/2/4 170/2/4
f 155/4/4 146/4/4 170/4/4
f 170/4/4 146/4/4 171/4/4
f 156/1/4 157/1/4 172/1/4
f 157/2/4 165/2/4 173/2/4
f 172/1/4 157/1/4 173/1/4
f 173/2/4 165/2/4 174/2/4
f 165/6/4 166/6/4 175/6/4
f 174/2/4 165/2/4 175/2/4
f 167/3/4 168/3/4 176/3/4
f 175/6/4 166/6/4 176/6/4
f 166/3/4 167/3/4 176/3/4
f 168/5/4 169/5/4 177/5/4
f 176/3/4 168/3/4 177/3/4
f 169/2/4 170/2/4 178/2/4
f 177/5/4 169/5/4 178/5/4
f 170/3/4 171/3/4 179/3/4
f 178/2/4 170/2/4 179/2/4
f 179/3/4 171/3/4 180/3/4
f 172/2/4 173/2/4 181/2/4
f 173/6/4 174/6/4 181/6/4
f 174/2/4 175/2/4 182/2/4
f 181/6/4 174/6/4 182/6/4
f 175/3/4 176/3/4 183/3/4
f 182/2/4 175/2/4 183/2/4
f 176/3/4 177/3/4 183/3/4
f 183/3/4 177/3/4 184/3/4
f 184/3/4 177/3/4 185/3/4
f 179/1/4 180/1/4 186/1/4
f 178/2/4 179/2/4 186/2/4
f 177/2/4 178/2/4 186/2/4
f 186/1/4 180/1/4 187/1/4
f 181/1/4 182/1/4 188/1/4
f 172/2/4 181/2/4 188/2/4
f 182/3/4 183/3/4 189/3/4
f 188/1/4 182/1/4 189/1/4
f 183/6/4 184/6/4 190/6/4
f 189/3/4 183/3/4 190/3/4
f 184/2/4 185/2/4 191/2/4
f 190/6/4 184/6/4 191/6/4
f 185/3/4 177/3/4 192/3/4
f 191/2/4 185/2/4 192/2/4
f 186/2/4 187/2/4 193/2/4
f 192/3/4 177/3/4 193/3/4
f 177/2/4 186/2/4 193/2/4
f 193/2/4 187/2/4 194/2/4
f 194/2/4 187/2/4 195/2/4
f 195/2/4 187/2/4 196/2/4
f 188/7/4 189/7/4 197/7/4
f 172/2/4 188/2/4 197/2/4
f 189/3/4 190/3/4 198/3/4
f 197/7/4 189/7/4 198/7/4
f 191/2/4 192/2/4 199/2/4
f 198/3/4 190/3/4 199/3/4
f 190/2/4 191/2/4 199/2/4
f 192/2/4 193/2/4 199/2/4
f 199/2/4 193/2/4 200/2/4
f 193/3/4 194/3/4 201/3/4
f 200/2/4 193/2/4 201/2/4
f 194/2/4 195/2/4 202/2/4
f 201/3/4 194/3/4 202/3/4
f 197/2/4 198/2/4 203/2/4
f 172/2/4 197/2/4 203/2/4
f 199/5/4 200/5/4 204/5/4
f 203/2/4 198/2/4 204/2/4
f 198/5/4 199/5/4 204/5/4
f 200/2/4 201/2/4 205/2/4
f 204/5/4 200/5/4 205/5/4
f 201/6/4 202/6/4 206/6/4
f 205/2/4 201/2/4 206/2/4
f 202/2/4 195/2/4 207/2/4
f 206/6/4 202/6/4 207/6/4
f 195/1/4 196/1/4 208/1/4
f 207/2/4 195/2/4 208/2/4
f 196/2/4 187/2/4 209/2/4
f 208/1/4 196/1/4 209/1/4
f 209/2/4 187/2/4 210/2/4
f 203/4/4 204/4/4 211/4/4
f 204/4/4 205/4/4 211/4/4
f 205/2/4 206/2/4 212/2/4
f 211/4/4 205/4/4 212/4/4
f 206/2/4 207/2/4 212/2/4
f 207/1/4 208/1/4 213/1/4
f 212/2/4 207/2/4 213/2/4
f 208/2/4 209/2/4 214/2/4
f 213/1/4 208/1/4 214/1/4
f 209/4/4 210/4/4 215/4/4
f 214/2/4 209/2/4 215/2/4
f 215/4/4 210/4/4 216/4/4
f 219/2/5 218/2/5 217/2/5
f 220/2/5 218/2/5 219/2/5
f 221/2/5 218/2/5 220/2/5
f 222/4/5 220/4/5 219/4/5
f 223/8/5 221/8/5 220/8/5
f 223/4/5 220/4/5 222/4/5
f 224/2/5 223/2/5 222/2/5
f 225/8/5 221/8/5 223/8/5
f 225/2/5 223/2/5 224/2/5
f 226/4/5 225/4/5 224/4/5
f 227/8/5 221/8/5 225/8/5
f 227/4/5 225/4/5 226/4/5
f 228/2/5 218/2/5 221/2/5
f 228/8/5 221/8/5 227/8/5
f 229/2/5 218/2/5 228/2/5
f 230/2/5 227/2/5 226/2/5
f 231/1/5 228/1/5 227/1/5
f 231/2/5 227/2/5 230/2/5
f 231/1/5 229/1/5 228/1/5
f 232/1/5 229/1/5 231/1/5
f 233/1/5 229/1/5 232/1/5
f 234/1/5 229/1/5 233/1/5
f 235/1/5 229/1/5 234/1/5
f 236/1/5 229/1/5 235/1/5
f 237/4/5 231/4/5 230/4/5
f 237/4/5 232/4/5 231/4/5
f 238/2/5 233/2/5 232/2/5
f 238/4/5 232/4/5 237/4/5
f 239/1/5 234/1/5 233/1/5
f 239/2/5 233/2/5 238/2/5
f 240/2/5 235/2/5 234/2/5
f 240/1/5 234/1/5 239/1/5
f 241/4/5 236/4/5 235/4/5
f 241/2/5 235/2/5 240/2/5
f 242/4/5 236/4/5 241/4/5
f 244/2/6 245/2/6 249/2/6
f 245/1/6 246/1/6 250/1/6
f 249/2/6 245/2/6 250/2/6
f 246/2/6 247/2/6 251/2/6
f 250/1/6 246/1/6 251/1/6
f 251/2/6 247/2/6 252/2/6
f 247/1/6 248/1/6 253/1/6
f 252/2/6 247/2/6 253/2/6
f 253/1/6 248/1/6 254/1/6
f 243/3/6 244/3/6 255/3/6
f 244/2/6 249/2/6 255/2/6
f 251/4/6 252/4/6 256/4/6
f 255/2/6 249/2/6 256/2/6
f 249/4/6 250/4/6 256/4/6
f 250/4/6 251/4/6 256/4/6
f 256/4/6 252/4/6 257/4/6
f 252/2/6 253/2/6 258/2/6
f 257/4/6 252/4/6 258/4/6
f 253/4/6 254/4/6 259/4/6
f 258/2/6 253/2/6 259/2/6
f 254/1/6 248/1/6 260/1/6
f 259/4/6 254/4/6 260/4/6
f 260/1/6 248/1/6 261/1/6
f 243/3/6 255/3/6 262/3/6
f 255/3/6 256/3/6 262/3/6
f 256/4/6 257/4/6 263/4/6
f 262/3/6 256/3/6 263/3/6
f 258/1/6 259/1/6 264/1/6
f 257/3/6 258/3/6 264/3/6
f 259/2/6 260/2/6 265/2/6
f 264/1/6 259/1/6 265/1/6
f 262/2/6 263/2/6 266/2/6
f 266/2/6 263/2/6 267/2/6
f 263/4/6 257/4/6 268/4/6
f 267/2/6 263/2/6 268/2/6
f 268/4/6 257/4/6 269/4/6
f 265/2/6 260/2/6 270/2/6
f 264/3/6 265/3/6 270/3/6
f 260/4/6 261/4/6 271/4/6
f 270/2/6 260/2/6 271/2/6
f 266/3/6 267/3/6 272/3/6
f 267/4/6 268/4/6 273/4/6
f 272/3/6 267/3/6 273/3/6
f 268/2/6 269/2/6 274/2/6
f 273/4/6 268/4/6 274/4/6
f 264/3/6 270/3/6 275/3/6
f 257/3/6 264/3/6 275/3/6
f 270/3/6 271/3/6 275/3/6
f 275/3/6 271/3/6 276/3/6
f 276/3/6 271/3/6 277/3/6
f 271/4/6 261/4/6 278/4/6
f 277/3/6 271/3/6 278/3/6
f 274/2/6 269/2/6 279/2/6
f 273/2/6 274/2/6 279/2/6
f 269/4/6 257/4/6 280/4/6
f 279/2/6 269/2/6 280/2/6
f 257/3/6 275/3/6 281/3/6
f 280/4/6 257/4/6 281/4/6
f 275/2/6 276/2/6 282/2/6
f 281/3/6 275/3/6 282/3/6
f 282/2/6 276/2/6 283/2/6
f 276/3/6 277/3/6 284/3/6
f 283/2/6 276/2/6 284/2/6
f 277/2/6 278/2/6 285/2/6
f 284/3/6 277/3/6 285/3/6
f 273/2/6 279/2/6 286/2/6
f 272/4/6 273/4/6 286/4/6
f 279/3/6 280/3/6 287/3/6
f 286/2/6 279/2/6 287/2/6
f 280/2/6 281/2/6 288/2/6
f 287/3/6 280/3/6 288/3/6
f 281/4/6 282/4/6 289/4/6
f 288/2/6 281/2/6 289/2/6
f 282/2/6 283/2/6 290/2/6
f 289/4/6 282/4/6 290/4/6
f 283/1/6 284/1/6 291/1/6
f 290/2/6 283/2/6 291/2/6
f 284/2/6 285/2/6 292/2/6
f 291/1/6 284/1/6 292/1/6
f 285/2/6 278/2/6 293/2/6
f 292/2/6 285/2/6 293/2/6
f 278/4/6 261/4/6 293/4/6
f 272/4/6 286/4/6 294/4/6
f 286/3/6 287/3/6 294/3/6
f 287/2/6 288/2/6 295/2/6
f 294/3/6 287/3/6 295/3/6
f 288/4/6 289/4/6 296/4/6
f 289/4/6 290/4/6 296/4/6
f 290/1/6 291/1/6 297/1/6
f 296/4/6 290/4/6 297/4/6
f 291/2/6 292/2/6 298/2/6
f 297/1/6 291/1/6 298/1/6
f 292/3/6 293/3/6 299/3/6
f 298/2/6 292/2/6 299/2/6
f 299/3/6 293/3/6 300/3/6
f 293/4/6 261/4/6 301/4/6
f 300/3/6 293/3/6 301/3/6
f 272/4/6 294/4/6 302/4/6
f 294/1/6 295/1/6 303/1/6
f 302/4/6 294/4/6 303/4/6
f 295/2/6 288/2/6 304/2/6
f 303/1/6 295/1/6 304/1/6
f 288/4/6 296/4/6 305/4/6
f 304/2/6 288/2/6 305/2/6
f 296/1/6 297/1/6 306/1/6
f 305/4/6 296/4/6 306/4/6
f 297/3/6 298/3/6 307/3/6
f 306/1/6 297/1/6 307/1/6
f 298/3/6 299/3/6 307/3/6
f 307/3/6 299/3/6 308/3/6
f 299/2/6 300/2/6 309/2/6
f 308/3/6 299/3/6 309/3/6
f 300/1/6 301/1/6 310/1/6
f 309/2/6 300/2/6 310/2/6
f 301/4/6 261/4/6 311/4/6
f 310/1/6 301/1/6 311/1/6
f 302/2/6 303/2/6 312/2/6
f 304/4/6 305/4/6 313/4/6
f 312/2/6 303/2/6 313/2/6
f 303/4/6 304/4/6 313/4/6
f 305/4/6 306/4/6 313/4/6
f 306/3/6 307/3/6 314/3/6
f 313/4/6 306/4/6 314/4/6
f 307/1/6 308/1/6 315/1/6
f 314/3/6 307/3/6 315/3/6
f 309/2/6 310/2/6 316/2/6
f 315/1/6 308/1/6 316/1/6
f 310/2/6 311/2/6 316/2/6
f 308/2/6 309/2/6 316/2/6
f 311/4/6 261/4/6 317/4/6
f 316/2/6 311/2/6 317/2/6
f 317/4/6 261/4/6 318/4/6
