# MagicaVoxel @ Ephtracy

# group
o 

# material
mtllib Grass.mtl
usemtl palette

# normals
vn -1 0 0
vn 1 0 0
vn 0 0 1
vn 0 0 -1
vn 0 -1 0
vn 0 1 0

# texcoords
vt 0.939453 0.5
vt 0.943359 0.5
vt 0.947266 0.5
vt 0.951172 0.5
vt 0.955078 0.5
vt 0.958984 0.5
vt 0.962891 0.5
vt 0.970703 0.5
vt 0.978516 0.5
vt 0.982422 0.5
vt 0.990234 0.5

# verts
v -0.5 0 0.5
v -0.5 0 0.4
v -0.5 0 0.3
v -0.5 0 -0.1
v -0.5 0 -0.3
v -0.5 0 -0.4
v -0.5 0.1 0.1
v -0.5 0.1 -0.1
v -0.5 0.1 -0.3
v -0.5 0.2 0
v -0.5 0.2 -0.1
v -0.5 0.2 -0.3
v -0.5 0.2 -0.4
v -0.5 0.3 0.5
v -0.5 0.3 0.4
v -0.5 0.3 0.3
v -0.5 0.3 0.2
v -0.5 0.3 0.1
v -0.5 0.3 0
v -0.5 0.4 0.4
v -0.5 0.4 0.2
v -0.5 0.5 0.4
v -0.5 0.5 0.3
v -0.5 0.5 0.2
v -0.5 0.5 0.1
v -0.5 0.5 -0.2
v -0.5 0.5 -0.3
v -0.5 0.5 -0.4
v -0.5 0.6 0.5
v -0.5 0.6 0.4
v -0.5 0.6 0.2
v -0.5 0.6 0
v -0.5 0.6 -0.1
v -0.5 0.6 -0.2
v -0.5 0.6 -0.3
v -0.5 0.6 -0.4
v -0.5 0.7 0.3
v -0.5 0.7 0.1
v -0.5 0.7 0
v -0.5 0.7 -0.1
v -0.5 0.7 -0.2
v -0.5 0.7 -0.3
v -0.5 0.7 -0.4
v -0.5 0.8 0.5
v -0.5 0.8 0.4
v -0.5 0.8 0.1
v -0.5 0.8 -0.2
v -0.5 0.8 -0.3
v -0.5 0.9 0.5
v -0.5 0.9 0.4
v -0.5 0.9 0.2
v -0.5 0.9 0.1
v -0.5 0.9 -0.1
v -0.5 0.9 -0.2
v -0.5 0.9 -0.3
v -0.5 0.9 -0.4
v -0.5 0.9 -0.5
v -0.5 1 0.5
v -0.5 1 0.4
v -0.5 1 0.2
v -0.5 1 0.1
v -0.5 1 -0.1
v -0.5 1 -0.2
v -0.5 1 -0.5
v -0.4 0.8 -0.4
v -0.4 0.8 -0.5
v -0.4 0.9 -0.4
v -0.4 0.9 -0.5
v 0 0.8 -0.4
v 0 0.8 -0.5
v 0 0.9 -0.4
v 0 0.9 -0.5
v -0.2 0.8 -0.4
v -0.2 0.8 -0.5
v -0.2 0.9 -0.4
v -0.2 0.9 -0.5
v 0.4 0.8 -0.4
v 0.4 0.8 -0.5
v 0.4 0.9 -0.4
v 0.4 0.9 -0.5
v 0.5 0 0.5
v 0.5 0 -0.3
v 0.5 0 -0.4
v 0.5 0.1 -0.3
v 0.5 0.1 -0.4
v 0.5 0.3 -0.3
v 0.5 0.3 -0.4
v 0.5 0.4 0.5
v 0.5 0.4 0.4
v 0.5 0.5 -0.3
v 0.5 0.5 -0.4
v 0.5 0.7 -0.3
v 0.5 0.7 -0.4
v 0.5 0.9 0.5
v 0.5 0.9 0.4
v 0.5 0.9 0.3
v 0.5 0.9 0.2
v 0.5 0.9 0.1
v 0.5 0.9 -0.2
v 0.5 0.9 -0.3
v 0.5 0.9 -0.4
v 0.5 0.9 -0.5
v 0.5 1 0.5
v 0.5 1 0.3
v 0.5 1 0.2
v 0.5 1 0.1
v 0.5 1 -0.2
v 0.5 1 -0.5
v -0.5 0 0.5
v -0.5 0.3 0.5
v -0.5 0.6 0.5
v -0.5 0.8 0.5
v -0.5 0.9 0.5
v -0.5 1 0.5
v -0.4 0.3 0.5
v -0.4 0.6 0.5
v -0.4 0.8 0.5
v -0.4 0.9 0.5
v -0.4 1 0.5
v -0.3 0.9 0.5
v -0.3 1 0.5
v 0.3 0.9 0.5
v 0.3 1 0.5
v 0.4 0.4 0.5
v 0.4 0.9 0.5
v 0.5 0 0.5
v 0.5 0.4 0.5
v 0.5 0.9 0.5
v 0.5 1 0.5
v -0.5 0 -0.4
v -0.5 0.2 -0.4
v -0.5 0.5 -0.4
v -0.5 0.6 -0.4
v -0.5 0.7 -0.4
v -0.5 0.9 -0.4
v -0.4 0 -0.4
v -0.4 0.1 -0.4
v -0.4 0.2 -0.4
v -0.4 0.3 -0.4
v -0.4 0.4 -0.4
v -0.4 0.5 -0.4
v -0.4 0.6 -0.4
v -0.4 0.7 -0.4
v -0.4 0.8 -0.4
v -0.4 0.9 -0.4
v -0.3 0.1 -0.4
v -0.3 0.2 -0.4
v -0.3 0.3 -0.4
v -0.3 0.4 -0.4
v -0.3 0.5 -0.4
v -0.3 0.6 -0.4
v -0.3 0.7 -0.4
v -0.3 0.8 -0.4
v -0.2 0 -0.4
v -0.2 0.1 -0.4
v -0.2 0.2 -0.4
v -0.2 0.3 -0.4
v -0.2 0.4 -0.4
v -0.2 0.5 -0.4
v -0.2 0.6 -0.4
v -0.2 0.7 -0.4
v -0.2 0.8 -0.4
v -0.2 0.9 -0.4
v -0.1 0.3 -0.4
v -0.1 0.4 -0.4
v -0.1 0.5 -0.4
v -0.1 0.6 -0.4
v -0.1 0.7 -0.4
v -0.1 0.8 -0.4
v -0.1 0.9 -0.4
v 0 0 -0.4
v 0 0.1 -0.4
v 0 0.2 -0.4
v 0 0.3 -0.4
v 0 0.4 -0.4
v 0 0.5 -0.4
v 0 0.6 -0.4
v 0 0.7 -0.4
v 0 0.8 -0.4
v 0 0.9 -0.4
v 0.1 0.1 -0.4
v 0.1 0.2 -0.4
v 0.1 0.3 -0.4
v 0.1 0.4 -0.4
v 0.1 0.5 -0.4
v 0.1 0.6 -0.4
v 0.2 0.1 -0.4
v 0.2 0.2 -0.4
v 0.2 0.3 -0.4
v 0.2 0.4 -0.4
v 0.2 0.5 -0.4
v 0.2 0.6 -0.4
v 0.2 0.7 -0.4
v 0.2 0.8 -0.4
v 0.3 0.1 -0.4
v 0.3 0.2 -0.4
v 0.3 0.3 -0.4
v 0.3 0.4 -0.4
v 0.3 0.5 -0.4
v 0.3 0.6 -0.4
v 0.3 0.7 -0.4
v 0.3 0.8 -0.4
v 0.4 0 -0.4
v 0.4 0.1 -0.4
v 0.4 0.2 -0.4
v 0.4 0.3 -0.4
v 0.4 0.4 -0.4
v 0.4 0.5 -0.4
v 0.4 0.6 -0.4
v 0.4 0.7 -0.4
v 0.4 0.8 -0.4
v 0.4 0.9 -0.4
v 0.5 0 -0.4
v 0.5 0.1 -0.4
v 0.5 0.3 -0.4
v 0.5 0.5 -0.4
v 0.5 0.7 -0.4
v 0.5 0.9 -0.4
v -0.5 0.9 -0.5
v -0.5 1 -0.5
v -0.4 0.8 -0.5
v -0.4 0.9 -0.5
v -0.4 1 -0.5
v -0.3 0.8 -0.5
v -0.3 0.9 -0.5
v -0.3 1 -0.5
v -0.2 0.8 -0.5
v -0.2 0.9 -0.5
v -0.2 1 -0.5
v -0.1 0.9 -0.5
v -0.1 1 -0.5
v 0 0.8 -0.5
v 0 0.9 -0.5
v 0.1 0.9 -0.5
v 0.1 1 -0.5
v 0.2 0.8 -0.5
v 0.2 0.9 -0.5
v 0.3 0.8 -0.5
v 0.3 0.9 -0.5
v 0.3 1 -0.5
v 0.4 0.8 -0.5
v 0.4 0.9 -0.5
v 0.4 1 -0.5
v 0.5 0.9 -0.5
v 0.5 1 -0.5
v -0.5 0 0.5
v 0.5 0 0.5
v -0.5 0 0.4
v -0.4 0 0.4
v 0.4 0 0.4
v -0.5 0 0.3
v -0.4 0 0.3
v -0.5 0 -0.1
v -0.4 0 -0.1
v -0.5 0 -0.3
v -0.4 0 -0.3
v -0.2 0 -0.3
v 0 0 -0.3
v 0.4 0 -0.3
v 0.5 0 -0.3
v -0.5 0 -0.4
v -0.4 0 -0.4
v -0.2 0 -0.4
v 0 0 -0.4
v 0.4 0 -0.4
v 0.5 0 -0.4
v -0.4 0.8 -0.4
v -0.3 0.8 -0.4
v -0.2 0.8 -0.4
v 0 0.8 -0.4
v 0.2 0.8 -0.4
v 0.3 0.8 -0.4
v 0.4 0.8 -0.4
v -0.4 0.8 -0.5
v -0.3 0.8 -0.5
v -0.2 0.8 -0.5
v 0 0.8 -0.5
v 0.2 0.8 -0.5
v 0.3 0.8 -0.5
v 0.4 0.8 -0.5
v -0.5 0.9 -0.4
v -0.4 0.9 -0.4
v -0.2 0.9 -0.4
v -0.1 0.9 -0.4
v 0 0.9 -0.4
v 0.4 0.9 -0.4
v 0.5 0.9 -0.4
v -0.5 0.9 -0.5
v -0.4 0.9 -0.5
v -0.2 0.9 -0.5
v -0.1 0.9 -0.5
v 0 0.9 -0.5
v 0.4 0.9 -0.5
v 0.5 0.9 -0.5
v -0.5 1 0.5
v -0.4 1 0.5
v -0.3 1 0.5
v 0.3 1 0.5
v 0.5 1 0.5
v -0.5 1 0.4
v -0.4 1 0.4
v -0.3 1 0.4
v -0.1 1 0.4
v 0.1 1 0.4
v 0.2 1 0.4
v 0.3 1 0.4
v 0.4 1 0.4
v -0.4 1 0.3
v -0.3 1 0.3
v -0.1 1 0.3
v 0.1 1 0.3
v 0.2 1 0.3
v 0.3 1 0.3
v 0.4 1 0.3
v 0.5 1 0.3
v -0.5 1 0.2
v -0.3 1 0.2
v -0.2 1 0.2
v -0.1 1 0.2
v 0 1 0.2
v 0.1 1 0.2
v 0.3 1 0.2
v 0.5 1 0.2
v -0.5 1 0.1
v -0.4 1 0.1
v -0.3 1 0.1
v -0.2 1 0.1
v -0.1 1 0.1
v 0.2 1 0.1
v 0.3 1 0.1
v 0.5 1 0.1
v -0.2 1 0
v -0.1 1 0
v 0 1 0
v 0.1 1 0
v 0.2 1 0
v 0.3 1 0
v 0.4 1 0
v -0.5 1 -0.1
v -0.4 1 -0.1
v -0.3 1 -0.1
v -0.2 1 -0.1
v -0.1 1 -0.1
v 0 1 -0.1
v 0.1 1 -0.1
v 0.2 1 -0.1
v 0.3 1 -0.1
v 0.4 1 -0.1
v -0.5 1 -0.2
v -0.4 1 -0.2
v -0.1 1 -0.2
v 0 1 -0.2
v 0.1 1 -0.2
v 0.2 1 -0.2
v 0.3 1 -0.2
v 0.4 1 -0.2
v 0.5 1 -0.2
v -0.3 1 -0.3
v -0.2 1 -0.3
v -0.1 1 -0.3
v 0 1 -0.3
v 0.1 1 -0.3
v 0.3 1 -0.3
v 0.4 1 -0.3
v -0.3 1 -0.4
v -0.2 1 -0.4
v -0.1 1 -0.4
v 0 1 -0.4
v 0.1 1 -0.4
v 0.3 1 -0.4
v 0.4 1 -0.4
v -0.5 1 -0.5
v -0.4 1 -0.5
v -0.3 1 -0.5
v -0.2 1 -0.5
v -0.1 1 -0.5
v 0.1 1 -0.5
v 0.3 1 -0.5
v 0.4 1 -0.5
v 0.5 1 -0.5

# faces
f 7/2/1 4/2/1 3/2/1
f 8/4/1 5/4/1 4/4/1
f 8/2/1 4/2/1 7/2/1
f 9/3/1 6/3/1 5/3/1
f 9/4/1 5/4/1 8/4/1
f 10/4/1 8/4/1 7/4/1
f 11/2/1 9/2/1 8/2/1
f 11/4/1 8/4/1 10/4/1
f 12/3/1 6/3/1 9/3/1
f 12/2/1 9/2/1 11/2/1
f 13/3/1 6/3/1 12/3/1
f 14/2/1 2/2/1 1/2/1
f 15/4/1 3/4/1 2/4/1
f 15/2/1 2/2/1 14/2/1
f 16/2/1 7/2/1 3/2/1
f 16/4/1 3/4/1 15/4/1
f 17/2/1 7/2/1 16/2/1
f 18/4/1 10/4/1 7/4/1
f 18/2/1 7/2/1 17/2/1
f 19/2/1 11/2/1 10/2/1
f 19/4/1 10/4/1 18/4/1
f 19/2/1 12/2/1 11/2/1
f 20/4/1 15/4/1 14/4/1
f 20/2/1 17/2/1 16/2/1
f 20/2/1 16/2/1 15/2/1
f 21/4/1 18/4/1 17/4/1
f 21/2/1 17/2/1 20/2/1
f 22/4/1 20/4/1 14/4/1
f 22/5/1 21/5/1 20/5/1
f 23/5/1 21/5/1 22/5/1
f 24/4/1 18/4/1 21/4/1
f 24/5/1 21/5/1 23/5/1
f 25/2/1 19/2/1 18/2/1
f 25/4/1 18/4/1 24/4/1
f 26/2/1 12/2/1 19/2/1
f 26/2/1 19/2/1 25/2/1
f 27/4/1 13/4/1 12/4/1
f 27/2/1 12/2/1 26/2/1
f 28/4/1 13/4/1 27/4/1
f 29/4/1 22/4/1 14/4/1
f 30/2/1 23/2/1 22/2/1
f 30/4/1 22/4/1 29/4/1
f 31/2/1 25/2/1 24/2/1
f 31/5/1 24/5/1 23/5/1
f 31/2/1 26/2/1 25/2/1
f 32/2/1 26/2/1 31/2/1
f 33/2/1 26/2/1 32/2/1
f 34/4/1 27/4/1 26/4/1
f 34/2/1 26/2/1 33/2/1
f 35/3/1 28/3/1 27/3/1
f 35/4/1 27/4/1 34/4/1
f 36/3/1 28/3/1 35/3/1
f 37/2/1 23/2/1 30/2/1
f 37/2/1 30/2/1 29/2/1
f 37/5/1 31/5/1 23/5/1
f 37/5/1 32/5/1 31/5/1
f 38/5/1 32/5/1 37/5/1
f 39/2/1 33/2/1 32/2/1
f 39/5/1 32/5/1 38/5/1
f 40/4/1 34/4/1 33/4/1
f 40/2/1 33/2/1 39/2/1
f 41/2/1 35/2/1 34/2/1
f 41/4/1 34/4/1 40/4/1
f 42/1/1 36/1/1 35/1/1
f 42/2/1 35/2/1 41/2/1
f 43/1/1 36/1/1 42/1/1
f 44/2/1 38/2/1 37/2/1
f 44/2/1 37/2/1 29/2/1
f 45/2/1 38/2/1 44/2/1
f 46/5/1 41/5/1 40/5/1
f 46/2/1 38/2/1 45/2/1
f 46/5/1 39/5/1 38/5/1
f 46/5/1 40/5/1 39/5/1
f 47/2/1 42/2/1 41/2/1
f 47/5/1 41/5/1 46/5/1
f 48/7/1 43/7/1 42/7/1
f 48/2/1 42/2/1 47/2/1
f 49/6/1 45/6/1 44/6/1
f 50/2/1 46/2/1 45/2/1
f 50/6/1 45/6/1 49/6/1
f 50/2/1 47/2/1 46/2/1
f 51/2/1 47/2/1 50/2/1
f 52/2/1 47/2/1 51/2/1
f 53/2/1 47/2/1 52/2/1
f 54/5/1 48/5/1 47/5/1
f 54/2/1 47/2/1 53/2/1
f 55/7/1 43/7/1 48/7/1
f 55/5/1 48/5/1 54/5/1
f 56/7/1 43/7/1 55/7/1
f 58/8/1 50/8/1 49/8/1
f 59/9/1 51/9/1 50/9/1
f 59/8/1 50/8/1 58/8/1
f 60/10/1 52/10/1 51/10/1
f 60/9/1 51/9/1 59/9/1
f 61/8/1 53/8/1 52/8/1
f 61/10/1 52/10/1 60/10/1
f 62/10/1 54/10/1 53/10/1
f 62/8/1 53/8/1 61/8/1
f 63/8/1 56/8/1 55/8/1
f 63/10/1 54/10/1 62/10/1
f 63/8/1 55/8/1 54/8/1
f 63/8/1 57/8/1 56/8/1
f 64/8/1 57/8/1 63/8/1
f 67/10/1 66/10/1 65/10/1
f 68/10/1 66/10/1 67/10/1
f 71/9/1 70/9/1 69/9/1
f 72/9/1 70/9/1 71/9/1
f 73/8/2 74/8/2 75/8/2
f 75/8/2 74/8/2 76/8/2
f 77/11/2 78/11/2 79/11/2
f 79/11/2 78/11/2 80/11/2
f 81/2/2 82/2/2 84/2/2
f 82/6/2 83/6/2 84/6/2
f 84/6/2 83/6/2 85/6/2
f 81/2/2 84/2/2 86/2/2
f 84/2/2 85/2/2 86/2/2
f 86/2/2 85/2/2 87/2/2
f 81/2/2 86/2/2 88/2/2
f 88/2/2 86/2/2 89/2/2
f 86/1/2 87/1/2 90/1/2
f 89/2/2 86/2/2 90/2/2
f 90/1/2 87/1/2 91/1/2
f 89/2/2 90/2/2 92/2/2
f 90/2/2 91/2/2 92/2/2
f 92/2/2 91/2/2 93/2/2
f 88/1/2 89/1/2 94/1/2
f 89/2/2 92/2/2 95/2/2
f 94/1/2 89/1/2 95/1/2
f 95/2/2 92/2/2 96/2/2
f 96/2/2 92/2/2 97/2/2
f 97/2/2 92/2/2 98/2/2
f 98/2/2 92/2/2 99/2/2
f 92/1/2 93/1/2 100/1/2
f 99/2/2 92/2/2 100/2/2
f 100/1/2 93/1/2 101/1/2
f 94/10/2 95/10/2 103/10/2
f 95/10/2 96/10/2 103/10/2
f 96/9/2 97/9/2 104/9/2
f 103/10/2 96/10/2 104/10/2
f 97/8/2 98/8/2 105/8/2
f 104/9/2 97/9/2 105/9/2
f 98/10/2 99/10/2 106/10/2
f 105/8/2 98/8/2 106/8/2
f 100/8/2 101/8/2 107/8/2
f 106/10/2 99/10/2 107/10/2
f 99/8/2 100/8/2 107/8/2
f 101/8/2 102/8/2 107/8/2
f 107/8/2 102/8/2 108/8/2
f 115/2/3 110/2/3 109/2/3
f 115/4/3 111/4/3 110/4/3
f 116/2/3 112/2/3 111/2/3
f 116/4/3 111/4/3 115/4/3
f 117/6/3 113/6/3 112/6/3
f 117/2/3 112/2/3 116/2/3
f 118/8/3 114/8/3 113/8/3
f 118/6/3 113/6/3 117/6/3
f 119/8/3 114/8/3 118/8/3
f 120/2/3 117/2/3 116/2/3
f 120/2/3 116/2/3 115/2/3
f 120/10/3 119/10/3 118/10/3
f 120/2/3 118/2/3 117/2/3
f 121/10/3 119/10/3 120/10/3
f 122/2/3 120/2/3 115/2/3
f 122/9/3 121/9/3 120/9/3
f 123/9/3 121/9/3 122/9/3
f 124/2/3 122/2/3 115/2/3
f 125/10/3 123/10/3 122/10/3
f 125/2/3 122/2/3 124/2/3
f 126/2/3 115/2/3 109/2/3
f 126/2/3 124/2/3 115/2/3
f 127/1/3 125/1/3 124/1/3
f 127/2/3 124/2/3 126/2/3
f 128/10/3 123/10/3 125/10/3
f 128/1/3 125/1/3 127/1/3
f 129/10/3 123/10/3 128/10/3
f 130/3/4 131/3/4 136/3/4
f 136/3/4 131/3/4 137/3/4
f 131/4/4 132/4/4 138/4/4
f 137/3/4 131/3/4 138/3/4
f 138/4/4 132/4/4 139/4/4
f 139/4/4 132/4/4 140/4/4
f 132/3/4 133/3/4 141/3/4
f 140/4/4 132/4/4 141/4/4
f 133/1/4 134/1/4 142/1/4
f 141/3/4 133/3/4 142/3/4
f 134/7/4 135/7/4 143/7/4
f 142/1/4 134/1/4 143/1/4
f 143/7/4 135/7/4 144/7/4
f 144/7/4 135/7/4 145/7/4
f 136/2/4 137/2/4 146/2/4
f 137/3/4 138/3/4 146/3/4
f 138/3/4 139/3/4 146/3/4
f 146/3/4 139/3/4 147/3/4
f 139/6/4 140/6/4 148/6/4
f 147/3/4 139/3/4 148/3/4
f 140/3/4 141/3/4 149/3/4
f 148/6/4 140/6/4 149/6/4
f 141/1/4 142/1/4 150/1/4
f 149/3/4 141/3/4 150/3/4
f 142/1/4 143/1/4 150/1/4
f 150/1/4 143/1/4 151/1/4
f 143/2/4 144/2/4 152/2/4
f 151/1/4 143/1/4 152/1/4
f 152/2/4 144/2/4 153/2/4
f 146/2/4 147/2/4 154/2/4
f 136/2/4 146/2/4 154/2/4
f 154/2/4 147/2/4 155/2/4
f 147/6/4 148/6/4 156/6/4
f 155/2/4 147/2/4 156/2/4
f 148/1/4 149/1/4 157/1/4
f 156/6/4 148/6/4 157/6/4
f 149/6/4 150/6/4 158/6/4
f 157/1/4 149/1/4 158/1/4
f 150/2/4 151/2/4 159/2/4
f 158/6/4 150/6/4 159/6/4
f 152/1/4 153/1/4 160/1/4
f 159/2/4 151/2/4 160/2/4
f 151/1/4 152/1/4 160/1/4
f 160/1/4 153/1/4 161/1/4
f 161/1/4 153/1/4 162/1/4
f 155/2/4 156/2/4 164/2/4
f 157/1/4 158/1/4 164/1/4
f 158/1/4 159/1/4 164/1/4
f 156/2/4 157/2/4 164/2/4
f 164/1/4 159/1/4 165/1/4
f 159/6/4 160/6/4 166/6/4
f 165/1/4 159/1/4 166/1/4
f 160/7/4 161/7/4 167/7/4
f 166/6/4 160/6/4 167/6/4
f 162/1/4 163/1/4 168/1/4
f 167/7/4 161/7/4 168/7/4
f 161/1/4 162/1/4 168/1/4
f 168/1/4 163/1/4 169/1/4
f 169/1/4 163/1/4 170/1/4
f 154/1/4 155/1/4 171/1/4
f 155/2/4 164/2/4 172/2/4
f 171/1/4 155/1/4 172/1/4
f 172/2/4 164/2/4 173/2/4
f 164/6/4 165/6/4 174/6/4
f 173/2/4 164/2/4 174/2/4
f 166/1/4 167/1/4 175/1/4
f 174/6/4 165/6/4 175/6/4
f 165/1/4 166/1/4 175/1/4
f 175/1/4 167/1/4 176/1/4
f 167/5/4 168/5/4 177/5/4
f 176/1/4 167/1/4 177/1/4
f 168/2/4 169/2/4 178/2/4
f 177/5/4 168/5/4 178/5/4
f 169/5/4 170/5/4 179/5/4
f 178/2/4 169/2/4 179/2/4
f 179/5/4 170/5/4 180/5/4
f 171/2/4 172/2/4 181/2/4
f 172/6/4 173/6/4 181/6/4
f 173/2/4 174/2/4 182/2/4
f 181/6/4 173/6/4 182/6/4
f 175/2/4 176/2/4 182/2/4
f 174/2/4 175/2/4 182/2/4
f 182/2/4 176/2/4 183/2/4
f 183/2/4 176/2/4 184/2/4
f 177/1/4 178/1/4 185/1/4
f 184/2/4 176/2/4 185/2/4
f 176/1/4 177/1/4 185/1/4
f 185/1/4 178/1/4 186/1/4
f 171/2/4 181/2/4 187/2/4
f 182/1/4 183/1/4 187/1/4
f 181/1/4 182/1/4 187/1/4
f 187/1/4 183/1/4 188/1/4
f 183/6/4 184/6/4 189/6/4
f 188/1/4 183/1/4 189/1/4
f 184/2/4 185/2/4 190/2/4
f 189/6/4 184/6/4 190/6/4
f 185/5/4 186/5/4 191/5/4
f 190/2/4 185/2/4 191/2/4
f 186/1/4 178/1/4 192/1/4
f 191/5/4 186/5/4 192/5/4
f 178/2/4 179/2/4 193/2/4
f 192/1/4 178/1/4 193/1/4
f 193/2/4 179/2/4 194/2/4
f 187/7/4 188/7/4 195/7/4
f 171/2/4 187/2/4 195/2/4
f 188/1/4 189/1/4 196/1/4
f 195/7/4 188/7/4 196/7/4
f 189/2/4 190/2/4 197/2/4
f 196/1/4 189/1/4 197/1/4
f 190/6/4 191/6/4 198/6/4
f 197/2/4 190/2/4 198/2/4
f 191/2/4 192/2/4 199/2/4
f 198/6/4 191/6/4 199/6/4
f 193/2/4 194/2/4 199/2/4
f 192/2/4 193/2/4 199/2/4
f 199/2/4 194/2/4 200/2/4
f 200/2/4 194/2/4 201/2/4
f 201/2/4 194/2/4 202/2/4
f 195/2/4 196/2/4 203/2/4
f 171/2/4 195/2/4 203/2/4
f 203/2/4 196/2/4 204/2/4
f 196/5/4 197/5/4 205/5/4
f 204/2/4 196/2/4 205/2/4
f 197/5/4 198/5/4 205/5/4
f 205/5/4 198/5/4 206/5/4
f 198/2/4 199/2/4 207/2/4
f 206/5/4 198/5/4 207/5/4
f 199/1/4 200/1/4 208/1/4
f 207/2/4 199/2/4 208/2/4
f 200/6/4 201/6/4 209/6/4
f 208/1/4 200/1/4 209/1/4
f 201/2/4 202/2/4 210/2/4
f 209/6/4 201/6/4 210/6/4
f 210/2/4 202/2/4 211/2/4
f 203/6/4 204/6/4 213/6/4
f 205/2/4 206/2/4 214/2/4
f 213/6/4 204/6/4 214/6/4
f 204/2/4 205/2/4 214/2/4
f 206/1/4 207/1/4 215/1/4
f 214/2/4 206/2/4 215/2/4
f 207/1/4 208/1/4 215/1/4
f 209/2/4 210/2/4 216/2/4
f 215/1/4 208/1/4 216/1/4
f 208/2/4 209/2/4 216/2/4
f 211/1/4 212/1/4 217/1/4
f 216/2/4 210/2/4 217/2/4
f 210/1/4 211/1/4 217/1/4
f 217/1/4 212/1/4 218/1/4
f 219/8/4 220/8/4 222/8/4
f 222/8/4 220/8/4 223/8/4
f 221/10/4 222/10/4 224/10/4
f 222/10/4 223/10/4 224/10/4
f 224/10/4 223/10/4 225/10/4
f 225/10/4 223/10/4 226/10/4
f 224/8/4 225/8/4 227/8/4
f 225/9/4 226/9/4 228/9/4
f 227/8/4 225/8/4 228/8/4
f 228/9/4 226/9/4 229/9/4
f 228/8/4 229/8/4 230/8/4
f 230/8/4 229/8/4 231/8/4
f 230/9/4 231/9/4 233/9/4
f 233/9/4 231/9/4 234/9/4
f 232/9/4 233/9/4 234/9/4
f 234/9/4 231/9/4 235/9/4
f 232/9/4 234/9/4 236/9/4
f 234/10/4 235/10/4 237/10/4
f 236/9/4 234/9/4 237/9/4
f 236/8/4 237/8/4 238/8/4
f 237/10/4 235/10/4 239/10/4
f 238/8/4 237/8/4 239/8/4
f 239/10/4 235/10/4 240/10/4
f 238/11/4 239/11/4 241/11/4
f 239/11/4 240/11/4 241/11/4
f 241/11/4 240/11/4 242/11/4
f 242/11/4 240/11/4 243/11/4
f 242/8/4 243/8/4 244/8/4
f 244/8/4 243/8/4 245/8/4
f 248/2/5 247/2/5 246/2/5
f 249/2/5 247/2/5 248/2/5
f 250/2/5 247/2/5 249/2/5
f 251/4/5 249/4/5 248/4/5
f 252/8/5 250/8/5 249/8/5
f 252/4/5 249/4/5 251/4/5
f 253/2/5 252/2/5 251/2/5
f 254/8/5 250/8/5 252/8/5
f 254/2/5 252/2/5 253/2/5
f 255/4/5 254/4/5 253/4/5
f 256/8/5 250/8/5 254/8/5
f 256/4/5 254/4/5 255/4/5
f 257/8/5 250/8/5 256/8/5
f 258/8/5 250/8/5 257/8/5
f 259/2/5 247/2/5 250/2/5
f 259/8/5 250/8/5 258/8/5
f 260/2/5 247/2/5 259/2/5
f 261/3/5 256/3/5 255/3/5
f 262/2/5 257/2/5 256/2/5
f 262/3/5 256/3/5 261/3/5
f 263/1/5 258/1/5 257/1/5
f 263/2/5 257/2/5 262/2/5
f 264/2/5 259/2/5 258/2/5
f 264/1/5 258/1/5 263/1/5
f 265/6/5 260/6/5 259/6/5
f 265/2/5 259/2/5 264/2/5
f 266/6/5 260/6/5 265/6/5
f 274/10/5 268/10/5 267/10/5
f 275/8/5 269/8/5 268/8/5
f 275/10/5 268/10/5 274/10/5
f 276/8/5 269/8/5 275/8/5
f 277/9/5 271/9/5 270/9/5
f 278/8/5 272/8/5 271/8/5
f 278/9/5 271/9/5 277/9/5
f 279/11/5 273/11/5 272/11/5
f 279/8/5 272/8/5 278/8/5
f 280/11/5 273/11/5 279/11/5
f 288/8/5 282/8/5 281/8/5
f 289/8/5 282/8/5 288/8/5
f 290/8/5 284/8/5 283/8/5
f 291/9/5 285/9/5 284/9/5
f 291/8/5 284/8/5 290/8/5
f 292/9/5 285/9/5 291/9/5
f 293/8/5 287/8/5 286/8/5
f 294/8/5 287/8/5 293/8/5
f 295/8/6 296/8/6 300/8/6
f 296/10/6 297/10/6 301/10/6
f 300/8/6 296/8/6 301/8/6
f 297/9/6 298/9/6 302/9/6
f 301/10/6 297/10/6 302/10/6
f 302/9/6 298/9/6 303/9/6
f 303/9/6 298/9/6 304/9/6
f 304/9/6 298/9/6 305/9/6
f 298/10/6 299/10/6 306/10/6
f 305/9/6 298/9/6 306/9/6
f 306/10/6 299/10/6 307/10/6
f 300/9/6 301/9/6 308/9/6
f 301/10/6 302/10/6 308/10/6
f 302/8/6 303/8/6 309/8/6
f 308/10/6 302/10/6 309/10/6
f 303/9/6 304/9/6 310/9/6
f 309/8/6 303/8/6 310/8/6
f 304/10/6 305/10/6 311/10/6
f 310/9/6 304/9/6 311/9/6
f 305/9/6 306/9/6 312/9/6
f 311/10/6 305/10/6 312/10/6
f 306/8/6 307/8/6 313/8/6
f 312/9/6 306/9/6 313/9/6
f 307/10/6 299/10/6 314/10/6
f 313/8/6 307/8/6 314/8/6
f 314/10/6 299/10/6 315/10/6
f 300/9/6 308/9/6 316/9/6
f 308/9/6 309/9/6 316/9/6
f 309/10/6 310/10/6 317/10/6
f 316/9/6 309/9/6 317/9/6
f 310/10/6 311/10/6 317/10/6
f 317/10/6 311/10/6 318/10/6
f 318/10/6 311/10/6 319/10/6
f 319/10/6 311/10/6 320/10/6
f 312/9/6 313/9/6 321/9/6
f 320/10/6 311/10/6 321/10/6
f 311/9/6 312/9/6 321/9/6
f 314/9/6 315/9/6 321/9/6
f 313/9/6 314/9/6 321/9/6
f 321/9/6 315/9/6 322/9/6
f 322/9/6 315/9/6 323/9/6
f 316/10/6 317/10/6 324/10/6
f 324/10/6 317/10/6 325/10/6
f 317/8/6 318/8/6 326/8/6
f 325/10/6 317/10/6 326/10/6
f 318/10/6 319/10/6 327/10/6
f 326/8/6 318/8/6 327/8/6
f 319/9/6 320/9/6 328/9/6
f 327/10/6 319/10/6 328/10/6
f 320/10/6 321/10/6 329/10/6
f 321/10/6 322/10/6 329/10/6
f 322/8/6 323/8/6 330/8/6
f 329/10/6 322/10/6 330/10/6
f 330/8/6 323/8/6 331/8/6
f 326/10/6 327/10/6 332/10/6
f 325/10/6 326/10/6 332/10/6
f 327/9/6 328/9/6 332/9/6
f 328/9/6 320/9/6 333/9/6
f 332/9/6 328/9/6 333/9/6
f 320/10/6 329/10/6 334/10/6
f 333/9/6 320/9/6 334/9/6
f 334/10/6 329/10/6 335/10/6
f 329/8/6 330/8/6 336/8/6
f 335/10/6 329/10/6 336/10/6
f 330/10/6 331/10/6 337/10/6
f 336/8/6 330/8/6 337/8/6
f 337/10/6 331/10/6 338/10/6
f 324/8/6 325/8/6 339/8/6
f 325/10/6 332/10/6 340/10/6
f 339/8/6 325/8/6 340/8/6
f 340/10/6 332/10/6 341/10/6
f 332/8/6 333/8/6 342/8/6
f 341/10/6 332/10/6 342/10/6
f 333/9/6 334/9/6 343/9/6
f 342/8/6 333/8/6 343/8/6
f 334/8/6 335/8/6 344/8/6
f 343/9/6 334/9/6 344/9/6
f 335/10/6 336/10/6 345/10/6
f 344/8/6 335/8/6 345/8/6
f 336/10/6 337/10/6 345/10/6
f 345/10/6 337/10/6 346/10/6
f 337/8/6 338/8/6 347/8/6
f 346/10/6 337/10/6 347/10/6
f 338/10/6 331/10/6 348/10/6
f 347/8/6 338/8/6 348/8/6
f 340/10/6 341/10/6 349/10/6
f 339/10/6 340/10/6 349/10/6
f 349/10/6 341/10/6 350/10/6
f 343/8/6 344/8/6 351/8/6
f 342/10/6 343/10/6 351/10/6
f 345/9/6 346/9/6 352/9/6
f 351/8/6 344/8/6 352/8/6
f 344/9/6 345/9/6 352/9/6
f 352/9/6 346/9/6 353/9/6
f 346/10/6 347/10/6 354/10/6
f 353/9/6 346/9/6 354/9/6
f 347/9/6 348/9/6 355/9/6
f 354/10/6 347/10/6 355/10/6
f 348/10/6 331/10/6 356/10/6
f 355/9/6 348/9/6 356/9/6
f 356/10/6 331/10/6 357/10/6
f 350/10/6 341/10/6 358/10/6
f 341/9/6 342/9/6 358/9/6
f 342/10/6 351/10/6 359/10/6
f 358/9/6 342/9/6 359/9/6
f 351/10/6 352/10/6 359/10/6
f 359/10/6 352/10/6 360/10/6
f 352/9/6 353/9/6 361/9/6
f 360/10/6 352/10/6 361/10/6
f 354/8/6 355/8/6 362/8/6
f 361/9/6 353/9/6 362/9/6
f 353/8/6 354/8/6 362/8/6
f 355/10/6 356/10/6 363/10/6
f 362/8/6 355/8/6 363/8/6
f 356/8/6 357/8/6 364/8/6
f 363/10/6 356/10/6 364/10/6
f 358/8/6 359/8/6 365/8/6
f 350/10/6 358/10/6 365/10/6
f 359/9/6 360/9/6 366/9/6
f 365/8/6 359/8/6 366/8/6
f 360/8/6 361/8/6 367/8/6
f 366/9/6 360/9/6 367/9/6
f 362/10/6 363/10/6 368/10/6
f 367/8/6 361/8/6 368/8/6
f 361/10/6 362/10/6 368/10/6
f 368/10/6 363/10/6 369/10/6
f 363/8/6 364/8/6 370/8/6
f 369/10/6 363/10/6 370/10/6
f 364/8/6 357/8/6 371/8/6
f 370/8/6 364/8/6 371/8/6
f 349/8/6 350/8/6 372/8/6
f 350/10/6 365/10/6 373/10/6
f 372/8/6 350/8/6 373/8/6
f 365/9/6 366/9/6 374/9/6
f 373/10/6 365/10/6 374/10/6
f 366/8/6 367/8/6 375/8/6
f 374/9/6 366/9/6 375/9/6
f 368/9/6 369/9/6 376/9/6
f 375/8/6 367/8/6 376/8/6
f 367/9/6 368/9/6 376/9/6
f 369/10/6 370/10/6 377/10/6
f 376/9/6 369/9/6 377/9/6
f 370/11/6 371/11/6 378/11/6
f 377/10/6 370/10/6 378/10/6
f 371/8/6 357/8/6 379/8/6
f 378/11/6 371/11/6 379/11/6
f 379/8/6 357/8/6 380/8/6
