# MagicaVoxel @ Ephtracy

# group
o 

# material
mtllib voxCircle.mtl
usemtl palette

# normals
vn -1 0 0
vn 1 0 0
vn 0 0 1
vn 0 0 -1
vn 0 -1 0
vn 0 1 0

# texcoords
vt 0.951172 0.5
vt 0.978516 0.5
vt 0.982422 0.5

# verts
v -0.5 0.3 0
v -0.5 0.3 -0.1
v -0.5 0.7 0
v -0.5 0.7 -0.1
v -0.4 0.2 0
v -0.4 0.2 -0.1
v -0.4 0.3 0
v -0.4 0.3 -0.1
v -0.4 0.7 0
v -0.4 0.7 -0.1
v -0.4 0.8 0
v -0.4 0.8 -0.1
v -0.3 0.1 0
v -0.3 0.1 -0.1
v -0.3 0.2 0
v -0.3 0.2 -0.1
v -0.3 0.8 0
v -0.3 0.8 -0.1
v -0.3 0.9 0
v -0.3 0.9 -0.1
v -0.2 0 0
v -0.2 0 -0.1
v -0.2 0.1 0
v -0.2 0.1 -0.1
v -0.2 0.4 0.1
v -0.2 0.4 0
v -0.2 0.6 0.1
v -0.2 0.6 0
v -0.2 0.9 0
v -0.2 0.9 -0.1
v -0.2 1 0
v -0.2 1 -0.1
v -0.1 0.3 0.1
v -0.1 0.3 0
v -0.1 0.4 0.1
v -0.1 0.4 0
v -0.1 0.6 0.1
v -0.1 0.6 0
v -0.1 0.7 0.1
v -0.1 0.7 0
v 0.1 0.3 0
v 0.1 0.3 -0.1
v 0.1 0.4 0
v 0.1 0.4 -0.1
v 0.1 0.6 0
v 0.1 0.6 -0.1
v 0.1 0.7 0
v 0.1 0.7 -0.1
v 0.2 0.4 0
v 0.2 0.4 -0.1
v 0.2 0.6 0
v 0.2 0.6 -0.1
v -0.2 0.4 0
v -0.2 0.4 -0.1
v -0.2 0.6 0
v -0.2 0.6 -0.1
v -0.1 0.3 0
v -0.1 0.3 -0.1
v -0.1 0.4 0
v -0.1 0.4 -0.1
v -0.1 0.6 0
v -0.1 0.6 -0.1
v -0.1 0.7 0
v -0.1 0.7 -0.1
v 0.1 0.3 0.1
v 0.1 0.3 0
v 0.1 0.4 0.1
v 0.1 0.4 0
v 0.1 0.6 0.1
v 0.1 0.6 0
v 0.1 0.7 0.1
v 0.1 0.7 0
v 0.2 0 0
v 0.2 0 -0.1
v 0.2 0.1 0
v 0.2 0.1 -0.1
v 0.2 0.4 0.1
v 0.2 0.4 0
v 0.2 0.6 0.1
v 0.2 0.6 0
v 0.2 0.9 0
v 0.2 0.9 -0.1
v 0.2 1 0
v 0.2 1 -0.1
v 0.3 0.1 0
v 0.3 0.1 -0.1
v 0.3 0.2 0
v 0.3 0.2 -0.1
v 0.3 0.8 0
v 0.3 0.8 -0.1
v 0.3 0.9 0
v 0.3 0.9 -0.1
v 0.4 0.2 0
v 0.4 0.2 -0.1
v 0.4 0.3 0
v 0.4 0.3 -0.1
v 0.4 0.7 0
v 0.4 0.7 -0.1
v 0.4 0.8 0
v 0.4 0.8 -0.1
v 0.5 0.3 0
v 0.5 0.3 -0.1
v 0.5 0.7 0
v 0.5 0.7 -0.1
v -0.2 0.4 0.1
v -0.2 0.6 0.1
v -0.1 0.3 0.1
v -0.1 0.4 0.1
v -0.1 0.6 0.1
v -0.1 0.7 0.1
v 0.1 0.3 0.1
v 0.1 0.4 0.1
v 0.1 0.6 0.1
v 0.1 0.7 0.1
v 0.2 0.4 0.1
v 0.2 0.6 0.1
v -0.5 0.3 0
v -0.5 0.7 0
v -0.4 0.2 0
v -0.4 0.3 0
v -0.4 0.4 0
v -0.4 0.6 0
v -0.4 0.7 0
v -0.4 0.8 0
v -0.3 0.1 0
v -0.3 0.2 0
v -0.3 0.3 0
v -0.3 0.4 0
v -0.3 0.6 0
v -0.3 0.7 0
v -0.3 0.8 0
v -0.3 0.9 0
v -0.2 0 0
v -0.2 0.1 0
v -0.2 0.2 0
v -0.2 0.3 0
v -0.2 0.4 0
v -0.2 0.6 0
v -0.2 0.7 0
v -0.2 0.8 0
v -0.2 0.9 0
v -0.2 1 0
v -0.1 0.1 0
v -0.1 0.2 0
v -0.1 0.3 0
v -0.1 0.4 0
v -0.1 0.6 0
v -0.1 0.7 0
v -0.1 0.8 0
v -0.1 0.9 0
v 0.1 0.1 0
v 0.1 0.2 0
v 0.1 0.3 0
v 0.1 0.4 0
v 0.1 0.6 0
v 0.1 0.7 0
v 0.1 0.8 0
v 0.1 0.9 0
v 0.2 0 0
v 0.2 0.1 0
v 0.2 0.2 0
v 0.2 0.3 0
v 0.2 0.4 0
v 0.2 0.6 0
v 0.2 0.7 0
v 0.2 0.8 0
v 0.2 0.9 0
v 0.2 1 0
v 0.3 0.1 0
v 0.3 0.2 0
v 0.3 0.3 0
v 0.3 0.4 0
v 0.3 0.6 0
v 0.3 0.7 0
v 0.3 0.8 0
v 0.3 0.9 0
v 0.4 0.2 0
v 0.4 0.3 0
v 0.4 0.4 0
v 0.4 0.6 0
v 0.4 0.7 0
v 0.4 0.8 0
v 0.5 0.3 0
v 0.5 0.7 0
v -0.2 0.4 0
v -0.2 0.6 0
v -0.1 0.3 0
v -0.1 0.4 0
v -0.1 0.6 0
v -0.1 0.7 0
v 0.1 0.3 0
v 0.1 0.4 0
v 0.1 0.6 0
v 0.1 0.7 0
v 0.2 0.4 0
v 0.2 0.6 0
v -0.5 0.3 -0.1
v -0.5 0.7 -0.1
v -0.4 0.2 -0.1
v -0.4 0.3 -0.1
v -0.4 0.4 -0.1
v -0.4 0.6 -0.1
v -0.4 0.7 -0.1
v -0.4 0.8 -0.1
v -0.3 0.1 -0.1
v -0.3 0.2 -0.1
v -0.3 0.3 -0.1
v -0.3 0.4 -0.1
v -0.3 0.6 -0.1
v -0.3 0.7 -0.1
v -0.3 0.8 -0.1
v -0.3 0.9 -0.1
v -0.2 0 -0.1
v -0.2 0.1 -0.1
v -0.2 0.2 -0.1
v -0.2 0.3 -0.1
v -0.2 0.4 -0.1
v -0.2 0.6 -0.1
v -0.2 0.7 -0.1
v -0.2 0.8 -0.1
v -0.2 0.9 -0.1
v -0.2 1 -0.1
v -0.1 0.1 -0.1
v -0.1 0.2 -0.1
v -0.1 0.3 -0.1
v -0.1 0.4 -0.1
v -0.1 0.6 -0.1
v -0.1 0.7 -0.1
v -0.1 0.8 -0.1
v -0.1 0.9 -0.1
v 0.1 0.1 -0.1
v 0.1 0.2 -0.1
v 0.1 0.3 -0.1
v 0.1 0.4 -0.1
v 0.1 0.6 -0.1
v 0.1 0.7 -0.1
v 0.1 0.8 -0.1
v 0.1 0.9 -0.1
v 0.2 0 -0.1
v 0.2 0.1 -0.1
v 0.2 0.2 -0.1
v 0.2 0.3 -0.1
v 0.2 0.4 -0.1
v 0.2 0.6 -0.1
v 0.2 0.7 -0.1
v 0.2 0.8 -0.1
v 0.2 0.9 -0.1
v 0.2 1 -0.1
v 0.3 0.1 -0.1
v 0.3 0.2 -0.1
v 0.3 0.3 -0.1
v 0.3 0.4 -0.1
v 0.3 0.6 -0.1
v 0.3 0.7 -0.1
v 0.3 0.8 -0.1
v 0.3 0.9 -0.1
v 0.4 0.2 -0.1
v 0.4 0.3 -0.1
v 0.4 0.4 -0.1
v 0.4 0.6 -0.1
v 0.4 0.7 -0.1
v 0.4 0.8 -0.1
v 0.5 0.3 -0.1
v 0.5 0.7 -0.1
v -0.2 0 0
v 0.2 0 0
v -0.2 0 -0.1
v 0.2 0 -0.1
v -0.3 0.1 0
v -0.2 0.1 0
v 0.2 0.1 0
v 0.3 0.1 0
v -0.3 0.1 -0.1
v -0.2 0.1 -0.1
v 0.2 0.1 -0.1
v 0.3 0.1 -0.1
v -0.4 0.2 0
v -0.3 0.2 0
v 0.3 0.2 0
v 0.4 0.2 0
v -0.4 0.2 -0.1
v -0.3 0.2 -0.1
v 0.3 0.2 -0.1
v 0.4 0.2 -0.1
v -0.1 0.3 0.1
v 0.1 0.3 0.1
v -0.5 0.3 0
v -0.4 0.3 0
v -0.1 0.3 0
v 0.1 0.3 0
v 0.4 0.3 0
v 0.5 0.3 0
v -0.5 0.3 -0.1
v -0.4 0.3 -0.1
v 0.4 0.3 -0.1
v 0.5 0.3 -0.1
v -0.2 0.4 0.1
v -0.1 0.4 0.1
v 0.1 0.4 0.1
v 0.2 0.4 0.1
v -0.2 0.4 0
v -0.1 0.4 0
v 0.1 0.4 0
v 0.2 0.4 0
v -0.2 0.6 0
v -0.1 0.6 0
v 0.1 0.6 0
v 0.2 0.6 0
v -0.2 0.6 -0.1
v -0.1 0.6 -0.1
v 0.1 0.6 -0.1
v 0.2 0.6 -0.1
v -0.1 0.7 0
v 0.1 0.7 0
v -0.1 0.7 -0.1
v 0.1 0.7 -0.1
v -0.1 0.3 0
v 0.1 0.3 0
v -0.1 0.3 -0.1
v 0.1 0.3 -0.1
v -0.2 0.4 0
v -0.1 0.4 0
v 0.1 0.4 0
v 0.2 0.4 0
v -0.2 0.4 -0.1
v -0.1 0.4 -0.1
v 0.1 0.4 -0.1
v 0.2 0.4 -0.1
v -0.2 0.6 0.1
v -0.1 0.6 0.1
v 0.1 0.6 0.1
v 0.2 0.6 0.1
v -0.2 0.6 0
v -0.1 0.6 0
v 0.1 0.6 0
v 0.2 0.6 0
v -0.1 0.7 0.1
v 0.1 0.7 0.1
v -0.5 0.7 0
v -0.4 0.7 0
v -0.1 0.7 0
v 0.1 0.7 0
v 0.4 0.7 0
v 0.5 0.7 0
v -0.5 0.7 -0.1
v -0.4 0.7 -0.1
v 0.4 0.7 -0.1
v 0.5 0.7 -0.1
v -0.4 0.8 0
v -0.3 0.8 0
v 0.3 0.8 0
v 0.4 0.8 0
v -0.4 0.8 -0.1
v -0.3 0.8 -0.1
v 0.3 0.8 -0.1
v 0.4 0.8 -0.1
v -0.3 0.9 0
v -0.2 0.9 0
v 0.2 0.9 0
v 0.3 0.9 0
v -0.3 0.9 -0.1
v -0.2 0.9 -0.1
v 0.2 0.9 -0.1
v 0.3 0.9 -0.1
v -0.2 1 0
v 0.2 1 0
v -0.2 1 -0.1
v 0.2 1 -0.1

# faces
f 3/2/1 2/2/1 1/2/1
f 4/2/1 2/2/1 3/2/1
f 7/2/1 6/2/1 5/2/1
f 8/2/1 6/2/1 7/2/1
f 11/2/1 10/2/1 9/2/1
f 12/2/1 10/2/1 11/2/1
f 15/2/1 14/2/1 13/2/1
f 16/2/1 14/2/1 15/2/1
f 19/2/1 18/2/1 17/2/1
f 20/2/1 18/2/1 19/2/1
f 23/2/1 22/2/1 21/2/1
f 24/2/1 22/2/1 23/2/1
f 27/3/1 26/3/1 25/3/1
f 28/3/1 26/3/1 27/3/1
f 31/2/1 30/2/1 29/2/1
f 32/2/1 30/2/1 31/2/1
f 35/3/1 34/3/1 33/3/1
f 36/3/1 34/3/1 35/3/1
f 39/3/1 38/3/1 37/3/1
f 40/3/1 38/3/1 39/3/1
f 43/1/1 42/1/1 41/1/1
f 44/1/1 42/1/1 43/1/1
f 47/1/1 46/1/1 45/1/1
f 48/1/1 46/1/1 47/1/1
f 51/1/1 50/1/1 49/1/1
f 52/1/1 50/1/1 51/1/1
f 53/1/2 54/1/2 55/1/2
f 55/1/2 54/1/2 56/1/2
f 57/1/2 58/1/2 59/1/2
f 59/1/2 58/1/2 60/1/2
f 61/1/2 62/1/2 63/1/2
f 63/1/2 62/1/2 64/1/2
f 65/3/2 66/3/2 67/3/2
f 67/3/2 66/3/2 68/3/2
f 69/3/2 70/3/2 71/3/2
f 71/3/2 70/3/2 72/3/2
f 73/2/2 74/2/2 75/2/2
f 75/2/2 74/2/2 76/2/2
f 77/3/2 78/3/2 79/3/2
f 79/3/2 78/3/2 80/3/2
f 81/2/2 82/2/2 83/2/2
f 83/2/2 82/2/2 84/2/2
f 85/2/2 86/2/2 87/2/2
f 87/2/2 86/2/2 88/2/2
f 89/2/2 90/2/2 91/2/2
f 91/2/2 90/2/2 92/2/2
f 93/2/2 94/2/2 95/2/2
f 95/2/2 94/2/2 96/2/2
f 97/2/2 98/2/2 99/2/2
f 99/2/2 98/2/2 100/2/2
f 101/2/2 102/2/2 103/2/2
f 103/2/2 102/2/2 104/2/2
f 108/3/3 106/3/3 105/3/3
f 109/3/3 106/3/3 108/3/3
f 111/3/3 108/3/3 107/3/3
f 111/3/3 110/3/3 109/3/3
f 111/3/3 109/3/3 108/3/3
f 112/3/3 110/3/3 111/3/3
f 113/3/3 110/3/3 112/3/3
f 114/3/3 110/3/3 113/3/3
f 115/3/3 113/3/3 112/3/3
f 116/3/3 113/3/3 115/3/3
f 120/2/3 118/2/3 117/2/3
f 121/2/3 118/2/3 120/2/3
f 122/2/3 118/2/3 121/2/3
f 123/2/3 118/2/3 122/2/3
f 126/2/3 120/2/3 119/2/3
f 126/2/3 121/2/3 120/2/3
f 127/2/3 121/2/3 126/2/3
f 128/1/3 122/1/3 121/1/3
f 128/2/3 121/2/3 127/2/3
f 129/2/3 124/2/3 123/2/3
f 129/1/3 122/1/3 128/1/3
f 129/2/3 123/2/3 122/2/3
f 130/2/3 124/2/3 129/2/3
f 131/2/3 124/2/3 130/2/3
f 134/2/3 126/2/3 125/2/3
f 135/3/3 127/3/3 126/3/3
f 135/2/3 126/2/3 134/2/3
f 136/1/3 128/1/3 127/1/3
f 136/3/3 127/3/3 135/3/3
f 136/1/3 129/1/3 128/1/3
f 136/1/3 130/1/3 129/1/3
f 137/1/3 130/1/3 136/1/3
f 138/1/3 130/1/3 137/1/3
f 139/3/3 131/3/3 130/3/3
f 139/1/3 130/1/3 138/1/3
f 140/2/3 132/2/3 131/2/3
f 140/3/3 131/3/3 139/3/3
f 141/2/3 132/2/3 140/2/3
f 143/2/3 135/2/3 134/2/3
f 143/2/3 134/2/3 133/2/3
f 144/1/3 136/1/3 135/1/3
f 144/2/3 135/2/3 143/2/3
f 144/1/3 137/1/3 136/1/3
f 145/1/3 137/1/3 144/1/3
f 146/1/3 137/1/3 145/1/3
f 147/1/3 139/1/3 138/1/3
f 147/1/3 140/1/3 139/1/3
f 148/1/3 140/1/3 147/1/3
f 149/2/3 142/2/3 141/2/3
f 149/1/3 140/1/3 148/1/3
f 149/2/3 141/2/3 140/2/3
f 150/2/3 142/2/3 149/2/3
f 151/1/3 145/1/3 144/1/3
f 151/2/3 143/2/3 133/2/3
f 151/1/3 144/1/3 143/1/3
f 152/1/3 145/1/3 151/1/3
f 153/1/3 145/1/3 152/1/3
f 156/1/3 150/1/3 149/1/3
f 156/1/3 149/1/3 148/1/3
f 157/1/3 150/1/3 156/1/3
f 158/2/3 142/2/3 150/2/3
f 158/1/3 150/1/3 157/1/3
f 159/2/3 151/2/3 133/2/3
f 159/2/3 152/2/3 151/2/3
f 160/2/3 152/2/3 159/2/3
f 161/1/3 154/1/3 153/1/3
f 161/2/3 152/2/3 160/2/3
f 161/1/3 153/1/3 152/1/3
f 162/1/3 154/1/3 161/1/3
f 163/1/3 154/1/3 162/1/3
f 164/1/3 157/1/3 156/1/3
f 164/1/3 156/1/3 155/1/3
f 165/1/3 157/1/3 164/1/3
f 166/2/3 158/2/3 157/2/3
f 166/1/3 157/1/3 165/1/3
f 167/2/3 142/2/3 158/2/3
f 167/2/3 158/2/3 166/2/3
f 168/2/3 142/2/3 167/2/3
f 169/2/3 161/2/3 160/2/3
f 170/3/3 162/3/3 161/3/3
f 170/2/3 161/2/3 169/2/3
f 171/1/3 163/1/3 162/1/3
f 171/3/3 162/3/3 170/3/3
f 171/1/3 165/1/3 164/1/3
f 171/1/3 164/1/3 163/1/3
f 172/1/3 165/1/3 171/1/3
f 173/1/3 165/1/3 172/1/3
f 174/3/3 166/3/3 165/3/3
f 174/1/3 165/1/3 173/1/3
f 175/2/3 167/2/3 166/2/3
f 175/3/3 166/3/3 174/3/3
f 176/2/3 167/2/3 175/2/3
f 177/2/3 171/2/3 170/2/3
f 177/2/3 172/2/3 171/2/3
f 178/2/3 172/2/3 177/2/3
f 179/1/3 173/1/3 172/1/3
f 179/2/3 172/2/3 178/2/3
f 180/2/3 174/2/3 173/2/3
f 180/1/3 173/1/3 179/1/3
f 180/2/3 175/2/3 174/2/3
f 181/2/3 175/2/3 180/2/3
f 182/2/3 175/2/3 181/2/3
f 183/2/3 179/2/3 178/2/3
f 183/2/3 181/2/3 180/2/3
f 183/2/3 180/2/3 179/2/3
f 184/2/3 181/2/3 183/2/3
f 185/3/4 186/3/4 188/3/4
f 188/3/4 186/3/4 189/3/4
f 187/3/4 188/3/4 191/3/4
f 189/3/4 190/3/4 191/3/4
f 188/3/4 189/3/4 191/3/4
f 191/3/4 190/3/4 192/3/4
f 192/3/4 190/3/4 193/3/4
f 193/3/4 190/3/4 194/3/4
f 192/3/4 193/3/4 195/3/4
f 195/3/4 193/3/4 196/3/4
f 197/2/4 198/2/4 200/2/4
f 200/2/4 198/2/4 201/2/4
f 201/2/4 198/2/4 202/2/4
f 202/2/4 198/2/4 203/2/4
f 199/2/4 200/2/4 206/2/4
f 200/2/4 201/2/4 206/2/4
f 206/2/4 201/2/4 207/2/4
f 201/1/4 202/1/4 208/1/4
f 207/2/4 201/2/4 208/2/4
f 203/2/4 204/2/4 209/2/4
f 208/1/4 202/1/4 209/1/4
f 202/2/4 203/2/4 209/2/4
f 209/2/4 204/2/4 210/2/4
f 210/2/4 204/2/4 211/2/4
f 205/2/4 206/2/4 214/2/4
f 206/3/4 207/3/4 215/3/4
f 214/2/4 206/2/4 215/2/4
f 207/1/4 208/1/4 216/1/4
f 215/3/4 207/3/4 216/3/4
f 208/1/4 209/1/4 216/1/4
f 209/1/4 210/1/4 216/1/4
f 216/1/4 210/1/4 217/1/4
f 217/1/4 210/1/4 218/1/4
f 210/3/4 211/3/4 219/3/4
f 218/1/4 210/1/4 219/1/4
f 211/2/4 212/2/4 220/2/4
f 219/3/4 211/3/4 220/3/4
f 220/2/4 212/2/4 221/2/4
f 214/2/4 215/2/4 223/2/4
f 213/2/4 214/2/4 223/2/4
f 215/1/4 216/1/4 224/1/4
f 223/2/4 215/2/4 224/2/4
f 216/1/4 217/1/4 224/1/4
f 224/1/4 217/1/4 225/1/4
f 225/1/4 217/1/4 226/1/4
f 218/1/4 219/1/4 227/1/4
f 219/1/4 220/1/4 227/1/4
f 227/1/4 220/1/4 228/1/4
f 221/2/4 222/2/4 229/2/4
f 228/1/4 220/1/4 229/1/4
f 220/2/4 221/2/4 229/2/4
f 229/2/4 222/2/4 230/2/4
f 224/1/4 225/1/4 231/1/4
f 213/2/4 223/2/4 231/2/4
f 223/1/4 224/1/4 231/1/4
f 231/1/4 225/1/4 232/1/4
f 232/1/4 225/1/4 233/1/4
f 229/1/4 230/1/4 236/1/4
f 228/1/4 229/1/4 236/1/4
f 236/1/4 230/1/4 237/1/4
f 230/2/4 222/2/4 238/2/4
f 237/1/4 230/1/4 238/1/4
f 213/2/4 231/2/4 239/2/4
f 231/2/4 232/2/4 239/2/4
f 239/2/4 232/2/4 240/2/4
f 233/1/4 234/1/4 241/1/4
f 240/2/4 232/2/4 241/2/4
f 232/1/4 233/1/4 241/1/4
f 241/1/4 234/1/4 242/1/4
f 242/1/4 234/1/4 243/1/4
f 236/1/4 237/1/4 244/1/4
f 235/1/4 236/1/4 244/1/4
f 244/1/4 237/1/4 245/1/4
f 237/2/4 238/2/4 246/2/4
f 245/1/4 237/1/4 246/1/4
f 238/2/4 222/2/4 247/2/4
f 246/2/4 238/2/4 247/2/4
f 247/2/4 222/2/4 248/2/4
f 240/2/4 241/2/4 249/2/4
f 241/3/4 242/3/4 250/3/4
f 249/2/4 241/2/4 250/2/4
f 242/1/4 243/1/4 251/1/4
f 250/3/4 242/3/4 251/3/4
f 244/1/4 245/1/4 251/1/4
f 243/1/4 244/1/4 251/1/4
f 251/1/4 245/1/4 252/1/4
f 252/1/4 245/1/4 253/1/4
f 245/3/4 246/3/4 254/3/4
f 253/1/4 245/1/4 254/1/4
f 246/2/4 247/2/4 255/2/4
f 254/3/4 246/3/4 255/3/4
f 255/2/4 247/2/4 256/2/4
f 250/2/4 251/2/4 257/2/4
f 251/2/4 252/2/4 257/2/4
f 257/2/4 252/2/4 258/2/4
f 252/1/4 253/1/4 259/1/4
f 258/2/4 252/2/4 259/2/4
f 253/2/4 254/2/4 260/2/4
f 259/1/4 253/1/4 260/1/4
f 254/2/4 255/2/4 260/2/4
f 260/2/4 255/2/4 261/2/4
f 261/2/4 255/2/4 262/2/4
f 258/2/4 259/2/4 263/2/4
f 260/2/4 261/2/4 263/2/4
f 259/2/4 260/2/4 263/2/4
f 263/2/4 261/2/4 264/2/4
f 267/2/5 266/2/5 265/2/5
f 268/2/5 266/2/5 267/2/5
f 273/2/5 270/2/5 269/2/5
f 274/2/5 270/2/5 273/2/5
f 275/2/5 272/2/5 271/2/5
f 276/2/5 272/2/5 275/2/5
f 281/2/5 278/2/5 277/2/5
f 282/2/5 278/2/5 281/2/5
f 283/2/5 280/2/5 279/2/5
f 284/2/5 280/2/5 283/2/5
f 289/3/5 286/3/5 285/3/5
f 290/3/5 286/3/5 289/3/5
f 293/2/5 288/2/5 287/2/5
f 294/2/5 288/2/5 293/2/5
f 295/2/5 292/2/5 291/2/5
f 296/2/5 292/2/5 295/2/5
f 301/3/5 298/3/5 297/3/5
f 302/3/5 298/3/5 301/3/5
f 303/3/5 300/3/5 299/3/5
f 304/3/5 300/3/5 303/3/5
f 309/1/5 306/1/5 305/1/5
f 310/1/5 306/1/5 309/1/5
f 311/1/5 308/1/5 307/1/5
f 312/1/5 308/1/5 311/1/5
f 315/1/5 314/1/5 313/1/5
f 316/1/5 314/1/5 315/1/5
f 317/1/6 318/1/6 319/1/6
f 319/1/6 318/1/6 320/1/6
f 321/1/6 322/1/6 325/1/6
f 325/1/6 322/1/6 326/1/6
f 323/1/6 324/1/6 327/1/6
f 327/1/6 324/1/6 328/1/6
f 329/3/6 330/3/6 333/3/6
f 333/3/6 330/3/6 334/3/6
f 331/3/6 332/3/6 335/3/6
f 335/3/6 332/3/6 336/3/6
f 337/3/6 338/3/6 341/3/6
f 341/3/6 338/3/6 342/3/6
f 339/2/6 340/2/6 345/2/6
f 345/2/6 340/2/6 346/2/6
f 343/2/6 344/2/6 347/2/6
f 347/2/6 344/2/6 348/2/6
f 349/2/6 350/2/6 353/2/6
f 353/2/6 350/2/6 354/2/6
f 351/2/6 352/2/6 355/2/6
f 355/2/6 352/2/6 356/2/6
f 357/2/6 358/2/6 361/2/6
f 361/2/6 358/2/6 362/2/6
f 359/2/6 360/2/6 363/2/6
f 363/2/6 360/2/6 364/2/6
f 365/2/6 366/2/6 367/2/6
f 367/2/6 366/2/6 368/2/6
